<?xml version="1.0" encoding="UTF-8"?>
<svg width="310px" height="286px" viewBox="0 0 310 286" version="1.1" xmlns="http://www.w3.org/2000/svg" xmlns:xlink="http://www.w3.org/1999/xlink">
    <!-- Generator: Sketch 59.1 (86144) - https://sketch.com -->
    <title>Group 54</title>
    <desc>Created with Sketch.</desc>
    <defs>
        <path d="M4.043,0.113140604 C1.86766667,0.113140604 0.103606061,1.87805519 0.103606061,4.05532194 L0.103606061,4.05532194 L0.103606061,295.753088 C0.103606061,297.929961 1.86766667,299.695269 4.043,299.695269 L4.043,299.695269 L164.754515,299.695269 C166.930242,299.695269 168.693909,297.929961 168.693909,295.753088 L168.693909,295.753088 L168.693909,4.05532194 C168.693909,1.87805519 166.930242,0.113140604 164.754515,0.113140604 L164.754515,0.113140604 L4.043,0.113140604 Z" id="path-1"></path>
        <polygon id="path-3" points="0 350 353.705197 350 353.705197 0.368940248 0 0.368940248"></polygon>
        <polygon id="path-5" points="0.345907867 0.0185150683 124.26651 0.0185150683 124.26651 119.306194 0.345907867 119.306194"></polygon>
        <polygon id="path-7" points="0.270703613 0.319266241 86.9140864 0.319266241 86.9140864 69.2957288 0.270703613 69.2957288"></polygon>
        <polygon id="path-9" points="0.345907867 0.319266241 35.392437 0.319266241 35.392437 102.338004 0.345907867 102.338004"></polygon>
        <polygon id="path-11" points="0.250892166 0.358749229 114.757015 0.358749229 114.757015 118.803834 0.250892166 118.803834"></polygon>
        <polygon id="path-13" points="0.345907867 0.0105630838 57.6367299 0.0105630838 57.6367299 53.9219713 0.345907867 53.9219713"></polygon>
        <polygon id="path-15" points="0.0210793797 0.101595503 44.6244922 0.101595503 44.6244922 83.5064393 0.0210793797 83.5064393"></polygon>
        <path d="M26.5507554,0.222889908 C11.479964,0.701412844 -0.348597122,13.2704312 0.13176259,28.2959725 L0.13176259,28.2959725 C0.13176259,43.3420275 27.4343165,85.8923028 27.4343165,85.8923028 L27.4343165,85.8923028 C27.4343165,85.8923028 54.7360791,43.3219083 54.7360791,28.2959725 L54.7360791,28.2959725 L54.7083813,28.2959725 C54.7269784,27.7180367 54.7269784,27.1397064 54.7083813,26.5621651 L54.7083813,26.5621651 C54.237518,11.8317064 42.1125899,0.208688073 27.436295,0.208688073 L27.436295,0.208688073 C27.1423022,0.208688073 26.8467266,0.213422018 26.5507554,0.222889908" id="path-17"></path>
        <path d="M0.202813953,8.46640476 C0.202813953,13.1272381 3.89339535,16.9056905 8.44583721,16.9056905 L8.44583721,16.9056905 C12.9982791,16.9056905 16.6892558,13.1272381 16.6892558,8.46640476 L16.6892558,8.46640476 C16.6892558,3.80557143 12.9982791,0.0271190476 8.44583721,0.0271190476 L8.44583721,0.0271190476 C3.89339535,0.0271190476 0.202813953,3.80557143 0.202813953,8.46640476" id="path-19"></path>
    </defs>
    <g id="Page-1" stroke="none" stroke-width="1" fill="none" fill-rule="evenodd">
        <g id="Desktop-HD-Copy-2" transform="translate(-238.000000, -1257.000000)">
            <g id="Group-54" transform="translate(196.000000, 1231.000000)">
                <polygon id="Fill-1" points="162 311 353 311 353 191 162 191"></polygon>
                <polygon id="Fill-3" stroke="#979797" stroke-width="2" fill="#FFFFFF" points="162 306 351 306 351 194 162 194"></polygon>
                <g id="Group-8" transform="translate(231.000000, 203.000000)" fill="#48B9B1">
                    <polygon id="Fill-4" points="87.8344225 17.8285152 111.807944 17.8285152 111.807944 0.109121212 87.8344225 0.109121212"></polygon>
                    <polygon id="Fill-6" points="0.0918873239 52.3179091 92.1487887 52.3179091 92.1487887 46.5703333 0.0918873239 46.5703333"></polygon>
                    <polygon id="Fill-7" points="0.0918873239 64.7703333 67.2169577 64.7703333 67.2169577 60.937303 0.0918873239 60.937303"></polygon>
                </g>
                <g id="Group-11" transform="translate(38.000000, 22.000000)">
                    <mask id="mask-2" fill="white">
                        <use xlink:href="#path-1"></use>
                    </mask>
                    <g id="Clip-10"></g>
                    <path d="M4.043,0.113140604 C1.86766667,0.113140604 0.103606061,1.87805519 0.103606061,4.05532194 L0.103606061,4.05532194 L0.103606061,295.753088 C0.103606061,297.929961 1.86766667,299.695269 4.043,299.695269 L4.043,299.695269 L164.754515,299.695269 C166.930242,299.695269 168.693909,297.929961 168.693909,295.753088 L168.693909,295.753088 L168.693909,4.05532194 C168.693909,1.87805519 166.930242,0.113140604 164.754515,0.113140604 L164.754515,0.113140604 L4.043,0.113140604 Z" id="Fill-9" mask="url(#mask-2)"></path>
                </g>
                <g id="Group-16">
                    <path d="M197.807149,26.3098985 C199.986795,26.3098985 201.753637,28.0764713 201.753637,30.2557835 L201.753637,307.710688 C201.753637,309.89 199.986795,311.656573 197.807149,311.656573 L46.2738381,311.656573 C44.0941926,311.656573 42.3273498,309.89 42.3273498,307.710688 L42.3273498,30.2557835 C42.3273498,28.0764713 44.0941926,26.3098985 46.2738381,26.3098985 L197.807149,26.3098985 Z" id="Fill-12" fill="#858484"></path>
                    <mask id="mask-4" fill="white">
                        <use xlink:href="#path-3"></use>
                    </mask>
                    <g id="Clip-15"></g>
                    <polygon id="Fill-14" fill="#48B9B1" mask="url(#mask-4)" points="60.327204 278.692728 183.753625 278.692728 183.753625 46.4813416 60.327204 46.4813416"></polygon>
                </g>
                <g id="Group-35" transform="translate(60.000000, 46.000000)">
                    <g id="Group-19" transform="translate(0.000000, 23.737267)">
                        <mask id="mask-6" fill="white">
                            <use xlink:href="#path-5"></use>
                        </mask>
                        <g id="Clip-18"></g>
                        <line x1="-49.063762" y1="119.306194" x2="198.440647" y2="0.0185150683" id="Stroke-17" stroke="#FFFFFF" stroke-width="7" mask="url(#mask-6)"></line>
                    </g>
                    <g id="Group-22" transform="translate(17.037845, 0.000000)">
                        <mask id="mask-8" fill="white">
                            <use xlink:href="#path-7"></use>
                        </mask>
                        <g id="Clip-21"></g>
                        <line x1="0.270703613" y1="-45.0822922" x2="86.9140864" y2="69.2957288" id="Stroke-20" stroke="#FFFFFF" stroke-width="7" mask="url(#mask-8)"></line>
                    </g>
                    <g id="Group-25">
                        <mask id="mask-10" fill="white">
                            <use xlink:href="#path-9"></use>
                        </mask>
                        <g id="Clip-24"></g>
                        <line x1="-54.2028514" y1="-4.03660138" x2="35.392437" y2="102.338004" id="Stroke-23" stroke="#FFFFFF" stroke-width="7" mask="url(#mask-10)"></line>
                    </g>
                    <g id="Group-28" transform="translate(9.509495, 114.334503)">
                        <mask id="mask-12" fill="white">
                            <use xlink:href="#path-11"></use>
                        </mask>
                        <g id="Clip-27"></g>
                        <line x1="0.250892166" y1="0.358749229" x2="140.543674" y2="189.469599" id="Stroke-26" stroke="#FFFFFF" stroke-width="7" mask="url(#mask-12)"></line>
                    </g>
                    <g id="Group-31" transform="translate(0.000000, 179.216366)">
                        <mask id="mask-14" fill="white">
                            <use xlink:href="#path-13"></use>
                        </mask>
                        <g id="Clip-30"></g>
                        <line x1="-59.3419407" y1="96.7953131" x2="57.6367299" y2="0.0105630838" id="Stroke-29" stroke="#FFFFFF" stroke-width="7" mask="url(#mask-14)"></line>
                    </g>
                    <g id="Group-34" transform="translate(79.642017, 125.411894)">
                        <mask id="mask-16" fill="white">
                            <use xlink:href="#path-15"></use>
                        </mask>
                        <g id="Clip-33"></g>
                        <line x1="87.9680554" y1="0.101595503" x2="0.0210793797" y2="83.5064393" id="Stroke-32" stroke="#FFFFFF" stroke-width="7" mask="url(#mask-16)"></line>
                    </g>
                </g>
                <g id="Group-42" transform="translate(100.000000, 34.000000)" fill="#DBDBDB">
                    <path d="M21.0963623,252.161291 C26.5539849,252.161291 30.9782491,256.569349 30.9782491,262.006981 C30.9782491,267.444612 26.5539849,271.85267 21.0963623,271.85267 C15.6387396,271.85267 11.2144755,267.444612 11.2144755,262.006981 C11.2144755,256.569349 15.6387396,252.161291 21.0963623,252.161291" id="Fill-36"></path>
                    <path d="M2.32315472,0.148751234 C3.41515472,0.148751234 4.30032453,1.03067866 4.30032453,2.11867866 C4.30032453,3.20667866 3.41515472,4.0886061 2.32315472,4.0886061 C1.23115472,4.0886061 0.345984906,3.20667866 0.345984906,2.11867866 C0.345984906,1.03067866 1.23115472,0.148751234 2.32315472,0.148751234" id="Fill-38"></path>
                    <path d="M11.8088151,0.642220029 L41.2484377,0.642220029 C41.5765132,0.642220029 41.8427774,0.907508853 41.8427774,1.23438258 L41.8427774,3.00297475 C41.8427774,3.32984848 41.5765132,3.5951373 41.2484377,3.5951373 L11.8088151,3.5951373 C11.4807396,3.5951373 11.2144755,3.32984848 11.2144755,3.00297475 L11.2144755,1.23438258 C11.2144755,0.907508853 11.4807396,0.642220029 11.8088151,0.642220029" id="Fill-40"></path>
                </g>
                <g id="Group-45" transform="translate(95.000000, 115.000000)">
                    <mask id="mask-18" fill="white">
                        <use xlink:href="#path-17"></use>
                    </mask>
                    <g id="Clip-44"></g>
                    <path d="M26.5507554,0.222889908 C11.479964,0.701412844 -0.348597122,13.2704312 0.13176259,28.2959725 L0.13176259,28.2959725 C0.13176259,43.3420275 27.4343165,85.8923028 27.4343165,85.8923028 L27.4343165,85.8923028 C27.4343165,85.8923028 54.7360791,43.3219083 54.7360791,28.2959725 L54.7360791,28.2959725 L54.7083813,28.2959725 C54.7269784,27.7180367 54.7269784,27.1397064 54.7083813,26.5621651 L54.7083813,26.5621651 C54.237518,11.8317064 42.1125899,0.208688073 27.436295,0.208688073 L27.436295,0.208688073 C27.1423022,0.208688073 26.8467266,0.213422018 26.5507554,0.222889908" id="Fill-43" mask="url(#mask-18)"></path>
                </g>
                <g id="Group-48" transform="translate(114.000000, 133.000000)">
                    <mask id="mask-20" fill="white">
                        <use xlink:href="#path-19"></use>
                    </mask>
                    <g id="Clip-47"></g>
                    <path d="M0.202813953,8.46640476 C0.202813953,13.1272381 3.89339535,16.9056905 8.44583721,16.9056905 L8.44583721,16.9056905 C12.9982791,16.9056905 16.6892558,13.1272381 16.6892558,8.46640476 L16.6892558,8.46640476 C16.6892558,3.80557143 12.9982791,0.0271190476 8.44583721,0.0271190476 L8.44583721,0.0271190476 C3.89339535,0.0271190476 0.202813953,3.80557143 0.202813953,8.46640476" id="Fill-46" mask="url(#mask-20)"></path>
                </g>
                <g id="Group-53" transform="translate(101.000000, 124.000000)">
                    <path d="M42.6501615,21.906542 C42.6501615,33.6731692 21.446033,66.9987314 21.446033,66.9987314 C21.446033,66.9987314 0.241904587,33.6612757 0.241904587,21.906542 C0.082133945,10.1387254 9.44508807,0.46931716 21.1548954,0.30835858 C32.8643083,0.14779645 42.4864459,9.55713373 42.6462165,21.3249503 C42.648978,21.5188142 42.648978,21.7126781 42.6462165,21.906542 L42.6501615,21.906542 Z" id="Fill-49" fill="#FF5252"></path>
                    <path d="M21.446033,13.9656148 C24.9866294,13.9656148 27.8565835,16.8497864 27.8565835,20.4079225 C27.8565835,23.9660586 24.9866294,26.8502302 21.446033,26.8502302 C17.9054367,26.8502302 15.0354826,23.9660586 15.0354826,20.4079225 C15.0354826,16.8497864 17.9054367,13.9656148 21.446033,13.9656148" id="Fill-51" fill="#FFFFFF"></path>
                </g>
            </g>
        </g>
    </g>
</svg>