<?xml version="1.0" encoding="UTF-8"?>
<svg width="700px" height="646px" viewBox="0 0 700 646" version="1.1" xmlns="http://www.w3.org/2000/svg" xmlns:xlink="http://www.w3.org/1999/xlink">
    <!-- Generator: Sketch 59.1 (86144) - https://sketch.com -->
    <title>Group 54</title>
    <desc>Created with Sketch.</desc>
    <defs>
        <path d="M9.13672316,0.255684982 C4.22071563,0.255684982 0.23413799,4.24419252 0.23413799,9.16456937 L0.23413799,9.16456937 L0.23413799,668.368561 C0.23413799,673.288047 4.22071563,677.277445 9.13672316,677.277445 L9.13672316,677.277445 L372.326588,677.277445 C377.243486,677.277445 381.229173,673.288047 381.229173,668.368561 L381.229173,668.368561 L381.229173,9.16456937 C381.229173,4.24419252 377.243486,0.255684982 372.326588,0.255684982 L372.326588,0.255684982 L9.13672316,0.255684982 Z" id="path-1"></path>
        <polygon id="path-3" points="0 790.960452 799.333779 790.960452 799.333779 0.833763272 0 0.833763272"></polygon>
        <polygon id="path-5" points="0.781712693 0.0418419622 280.82827 0.0418419622 280.82827 269.618518 0.781712693 269.618518"></polygon>
        <polygon id="path-7" points="0.611759578 0.72150563 196.416014 0.72150563 196.416014 156.600517 0.611759578 156.600517"></polygon>
        <polygon id="path-9" points="0.781712693 0.72150563 79.9829086 0.72150563 79.9829086 231.272327 0.781712693 231.272327"></polygon>
        <polygon id="path-11" points="0.566987946 0.81073272 259.337887 0.81073272 259.337887 268.483242 0.566987946 268.483242"></polygon>
        <polygon id="path-13" points="0.781712693 0.0238713759 130.252497 0.0238713759 130.252497 121.857562 0.781712693 121.857562"></polygon>
        <polygon id="path-15" points="0.0476370163 0.229594357 100.84631 0.229594357 100.84631 188.715117 0.0476370163 188.715117"></polygon>
        <path d="M60.0017071,0.503706007 C25.9434215,1.58511377 -0.787790107,29.989675 0.297768565,63.9457005 L0.297768565,63.9457005 C0.297768565,97.9480848 61.9984555,194.106899 61.9984555,194.106899 L61.9984555,194.106899 C61.9984555,194.106899 123.697354,97.9026175 123.697354,63.9457005 L123.697354,63.9457005 L123.63476,63.9457005 C123.676787,62.639631 123.676787,61.3326699 123.63476,60.0274918 L123.63476,60.0274918 C122.570662,26.7383196 95.1696948,0.471611465 62.0029265,0.471611465 L62.0029265,0.471611465 C61.338536,0.471611465 60.6705686,0.482309646 60.0017071,0.503706007" id="path-17"></path>
        <path d="M0.458336618,19.1331181 C0.458336618,29.6660748 8.79863356,38.2049502 19.0866378,38.2049502 L19.0866378,38.2049502 C29.374642,38.2049502 37.7158323,29.6660748 37.7158323,19.1331181 L37.7158323,19.1331181 C37.7158323,8.60016142 29.374642,0.0612859833 19.0866378,0.0612859833 L19.0866378,0.0612859833 C8.79863356,0.0612859833 0.458336618,8.60016142 0.458336618,19.1331181" id="path-19"></path>
    </defs>
    <g id="Page-1" stroke="none" stroke-width="1" fill="none" fill-rule="evenodd">
        <g id="Desktop-HD-Copy-2" transform="translate(-291.000000, -1290.000000)">
            <g id="Group-54" transform="translate(196.000000, 1231.000000)">
                <polygon id="Fill-1" points="366.101695 702.824859 797.740113 702.824859 797.740113 431.638418 366.101695 431.638418"></polygon>
                <polygon id="Fill-3" stroke="#979797" stroke-width="2" fill="#FFFFFF" points="366.101695 691.525424 793.220339 691.525424 793.220339 438.418079 366.101695 438.418079"></polygon>
                <g id="Group-8" transform="translate(522.033898, 458.757062)" fill="#48B9B1">
                    <polygon id="Fill-4" points="198.49587 40.2904297 252.673319 40.2904297 252.673319 0.246601609 198.49587 0.246601609"></polygon>
                    <polygon id="Fill-6" points="0.207654969 118.232563 208.24585 118.232563 208.24585 105.243691 0.207654969 105.243691"></polygon>
                    <polygon id="Fill-7" points="0.207654969 146.373635 151.902729 146.373635 151.902729 137.711419 0.207654969 137.711419"></polygon>
                </g>
                <g id="Group-11" transform="translate(85.875706, 49.717514)">
                    <mask id="mask-2" fill="white">
                        <use xlink:href="#path-1"></use>
                    </mask>
                    <g id="Clip-10"></g>
                    <path d="M9.13672316,0.255684982 C4.22071563,0.255684982 0.23413799,4.24419252 0.23413799,9.16456937 L0.23413799,9.16456937 L0.23413799,668.368561 C0.23413799,673.288047 4.22071563,677.277445 9.13672316,677.277445 L9.13672316,677.277445 L372.326588,677.277445 C377.243486,677.277445 381.229173,673.288047 381.229173,668.368561 L381.229173,668.368561 L381.229173,9.16456937 C381.229173,4.24419252 377.243486,0.255684982 372.326588,0.255684982 L372.326588,0.255684982 L9.13672316,0.255684982 Z" id="Fill-9" mask="url(#mask-2)"></path>
                </g>
                <g id="Group-16">
                    <path d="M447.021806,59.4573978 C451.947559,59.4573978 455.940424,63.4496525 455.940424,68.3746521 L455.940424,695.391385 C455.940424,700.316384 451.947559,704.308639 447.021806,704.308639 L104.573645,704.308639 C99.647893,704.308639 95.6550279,700.316384 95.6550279,695.391385 L95.6550279,68.3746521 C95.6550279,63.4496525 99.647893,59.4573978 104.573645,59.4573978 L447.021806,59.4573978 Z" id="Fill-12" fill="#858484"></path>
                    <mask id="mask-4" fill="white">
                        <use xlink:href="#path-3"></use>
                    </mask>
                    <g id="Clip-15"></g>
                    <polygon id="Fill-14" fill="#48B9B1" mask="url(#mask-4)" points="136.332664 629.814075 415.26243 629.814075 415.26243 105.04258 136.332664 105.04258"></polygon>
                </g>
                <g id="Group-35" transform="translate(135.593220, 103.954802)">
                    <g id="Group-19" transform="translate(0.000000, 53.643541)">
                        <mask id="mask-6" fill="white">
                            <use xlink:href="#path-5"></use>
                        </mask>
                        <g id="Clip-18"></g>
                        <line x1="-110.878558" y1="269.618518" x2="448.453439" y2="0.0418419622" id="Stroke-17" stroke="#FFFFFF" stroke-width="7" mask="url(#mask-6)"></line>
                    </g>
                    <g id="Group-22" transform="translate(38.503603, 0.000000)">
                        <mask id="mask-8" fill="white">
                            <use xlink:href="#path-7"></use>
                        </mask>
                        <g id="Clip-21"></g>
                        <line x1="0.611759578" y1="-101.880886" x2="196.416014" y2="156.600517" id="Stroke-20" stroke="#FFFFFF" stroke-width="7" mask="url(#mask-8)"></line>
                    </g>
                    <g id="Group-25">
                        <mask id="mask-10" fill="white">
                            <use xlink:href="#path-9"></use>
                        </mask>
                        <g id="Clip-24"></g>
                        <line x1="-122.492319" y1="-9.122263" x2="79.9829086" y2="231.272327" id="Stroke-23" stroke="#FFFFFF" stroke-width="7" mask="url(#mask-10)"></line>
                    </g>
                    <g id="Group-28" transform="translate(21.490383, 258.383057)">
                        <mask id="mask-12" fill="white">
                            <use xlink:href="#path-11"></use>
                        </mask>
                        <g id="Clip-27"></g>
                        <line x1="0.566987946" y1="0.81073272" x2="317.612822" y2="428.179885" id="Stroke-26" stroke="#FFFFFF" stroke-width="7" mask="url(#mask-12)"></line>
                    </g>
                    <g id="Group-31" transform="translate(0.000000, 405.008736)">
                        <mask id="mask-14" fill="white">
                            <use xlink:href="#path-13"></use>
                        </mask>
                        <g id="Clip-30"></g>
                        <line x1="-134.106081" y1="218.74647" x2="130.252497" y2="0.0238713759" id="Stroke-29" stroke="#FFFFFF" stroke-width="7" mask="url(#mask-14)"></line>
                    </g>
                    <g id="Group-34" transform="translate(179.981960, 283.416710)">
                        <mask id="mask-16" fill="white">
                            <use xlink:href="#path-15"></use>
                        </mask>
                        <g id="Clip-33"></g>
                        <line x1="198.797865" y1="0.229594357" x2="0.0476370163" y2="188.715117" id="Stroke-32" stroke="#FFFFFF" stroke-width="7" mask="url(#mask-16)"></line>
                    </g>
                </g>
                <g id="Group-42" transform="translate(225.988701, 76.836158)" fill="#DBDBDB">
                    <path d="M47.6753949,569.856025 C60.0090054,569.856025 70.0073425,579.817738 70.0073425,592.106171 C70.0073425,604.394603 60.0090054,614.356316 47.6753949,614.356316 C35.3417845,614.356316 25.3434474,604.394603 25.3434474,592.106171 C25.3434474,579.817738 35.3417845,569.856025 47.6753949,569.856025" id="Fill-36"></path>
                    <path d="M5.25006716,0.33616098 C7.71786377,0.33616098 9.71824752,2.32921732 9.71824752,4.78797438 C9.71824752,7.24673145 7.71786377,9.23978779 5.25006716,9.23978779 C2.78227055,9.23978779 0.781886792,7.24673145 0.781886792,4.78797438 C0.781886792,2.32921732 2.78227055,0.33616098 5.25006716,0.33616098" id="Fill-38"></path>
                    <path d="M26.6865878,1.4513447 L93.2168084,1.4513447 C93.9582219,1.4513447 94.5599488,2.05086747 94.5599488,2.78956516 L94.5599488,6.78638361 C94.5599488,7.5250813 93.9582219,8.12460407 93.2168084,8.12460407 L26.6865878,8.12460407 C25.9451743,8.12460407 25.3434474,7.5250813 25.3434474,6.78638361 L25.3434474,2.78956516 C25.3434474,2.05086747 25.9451743,1.4513447 26.6865878,1.4513447" id="Fill-40"></path>
                </g>
                <g id="Group-45" transform="translate(214.689266, 259.887006)">
                    <mask id="mask-18" fill="white">
                        <use xlink:href="#path-17"></use>
                    </mask>
                    <g id="Clip-44"></g>
                    <path d="M60.0017071,0.503706007 C25.9434215,1.58511377 -0.787790107,29.989675 0.297768565,63.9457005 L0.297768565,63.9457005 C0.297768565,97.9480848 61.9984555,194.106899 61.9984555,194.106899 L61.9984555,194.106899 C61.9984555,194.106899 123.697354,97.9026175 123.697354,63.9457005 L123.697354,63.9457005 L123.63476,63.9457005 C123.676787,62.639631 123.676787,61.3326699 123.63476,60.0274918 L123.63476,60.0274918 C122.570662,26.7383196 95.1696948,0.471611465 62.0029265,0.471611465 L62.0029265,0.471611465 C61.338536,0.471611465 60.6705686,0.482309646 60.0017071,0.503706007" id="Fill-43" mask="url(#mask-18)"></path>
                </g>
                <g id="Group-48" transform="translate(257.627119, 300.564972)">
                    <mask id="mask-20" fill="white">
                        <use xlink:href="#path-19"></use>
                    </mask>
                    <g id="Clip-47"></g>
                    <path d="M0.458336618,19.1331181 C0.458336618,29.6660748 8.79863356,38.2049502 19.0866378,38.2049502 L19.0866378,38.2049502 C29.374642,38.2049502 37.7158323,29.6660748 37.7158323,19.1331181 L37.7158323,19.1331181 C37.7158323,8.60016142 29.374642,0.0612859833 19.0866378,0.0612859833 L19.0866378,0.0612859833 C8.79863356,0.0612859833 0.458336618,8.60016142 0.458336618,19.1331181" id="Fill-46" mask="url(#mask-20)"></path>
                </g>
                <g id="Group-53" transform="translate(228.248588, 280.225989)">
                    <path d="M96.3845457,49.5063096 C96.3845457,76.0975576 48.4656114,151.409562 48.4656114,151.409562 C48.4656114,151.409562 0.546677033,76.0706796 0.546677033,49.5063096 C0.185613435,22.9123739 21.3448318,1.06060375 47.8076732,0.696855548 C74.2696232,0.334003276 96.0145669,21.5980423 96.3756305,48.1919781 C96.3818711,48.6300886 96.3818711,49.0681991 96.3756305,49.5063096 L96.3845457,49.5063096 Z" id="Fill-49" fill="#FF5252"></path>
                    <path d="M48.4656114,31.5607114 C56.466959,31.5607114 62.952731,38.0786133 62.952731,46.1195988 C62.952731,54.1605844 56.466959,60.6784863 48.4656114,60.6784863 C40.4642637,60.6784863 33.9784917,54.1605844 33.9784917,46.1195988 C33.9784917,38.0786133 40.4642637,31.5607114 48.4656114,31.5607114" id="Fill-51" fill="#FFFFFF"></path>
                </g>
            </g>
        </g>
    </g>
</svg>