<?xml version="1.0" encoding="utf-8"?>
<!-- Generator: Adobe Illustrator 19.1.0, SVG Export Plug-In . SVG Version: 6.00 Build 0)  -->
<svg version="1.1" id="b4c217a0-9b86-49d5-974d-fd03b0c4b3dd"
	 xmlns="http://www.w3.org/2000/svg" xmlns:xlink="http://www.w3.org/1999/xlink" x="0px" y="0px" viewBox="82 -83.7 1006.8 762"
	 style="enable-background:new 82 -83.7 1006.8 762;" xml:space="preserve">
<style type="text/css">
	.st0{fill:#CBD1D1;}
	.st1{fill:#48B9B1;}
	.st2{fill:#2F2E41;}
	.st3{fill:#3F3D56;}
	.st4{fill:#F2F2F2;}
	.st5{fill:#57B894;}
	.st6{opacity:0.1;enable-background:new    ;}
	.st7{fill:none;stroke:#3F3D56;stroke-width:4;stroke-miterlimit:10;}
	.st8{fill:#57B793;}
	.st9{fill:#656380;}
	.st10{opacity:0.2;enable-background:new    ;}
	.st11{opacity:5.000000e-02;enable-background:new    ;}
	.st12{fill:#FFC0C6;}
	.st13{fill:#605D82;}
	.st14{fill:#535070;}
</style>
<title>apartment rent</title>
<path class="st0" d="M1046.8,229.3v-117h-65v-76h-44v76h-65v117h-36v-263h-73v-25h-97v-25h-96v25h-91v25h-79v262h-42v-117h-65v-76
	h-44v76h-65v117h-42v415h96v-147h66v147h258v-171h112v171h156v1h96v-147h66v147h96v-415H1046.8z M177.3,279.3h38v30h-38V279.3z
	 M177.8,363.3h38v30h-38V363.3z M216.3,477.3h-38v-30h38V477.3z M315.8,206.3h-88v-18h88V206.3z M315.8,180.3h-88v-18h88V180.3z
	 M315.8,154.3h-88v-18h88V154.3z M328.3,279.3h38v30h-38V279.3z M328.8,363.3h38v30h-38V363.3z M367.3,477.3h-38v-30h38V477.3z
	 M522.8,427.3h-70v-31h70V427.3z M522.8,338.3h-70v-31h70V338.3z M522.8,249.3h-70v-31h70V249.3z M522.8,160.3h-70v-31h70V160.3z
	 M522.8,71.3h-70v-31h70V71.3z M653.8,427.3h-70v-31h70V427.3z M653.8,338.3h-70v-31h70V338.3z M653.8,249.3h-70v-31h70V249.3z
	 M653.8,160.3h-70v-31h70V160.3z M653.8,71.3h-70v-31h70V71.3z M784.8,427.3h-70v-31h70V427.3z M784.8,338.3h-70v-31h70V338.3z
	 M784.8,249.3h-70v-31h70V249.3z M784.8,160.3h-70v-31h70V160.3z M784.8,71.3h-70v-31h70V71.3z M865.3,280.3h38v30h-38V280.3z
	 M865.8,364.3h38v30h-38V364.3z M904.3,478.3h-38v-30h38V478.3z M1003.8,207.3h-88v-18h88V207.3z M1003.8,181.3h-88v-18h88V181.3z
	 M1003.8,155.3h-88v-18h88V155.3z M1016.3,280.3h38v30h-38V280.3z M1016.8,364.3h38v30h-38V364.3z M1055.3,478.3h-38v-30h38V478.3z"
	/>
<path class="st1" d="M202,542c-0.3,4-0.7,8.4-1.4,13l12.2-13.6l0.1,0.2c-0.7-3.3-2-6.4-3.6-9.3l0.1,0.2L202,542z"/>
<path class="st1" d="M202,541.3l7.2-9.1c-1.5-2.8-3.7-5.1-6.4-6.8c-0.1-0.1-0.3-0.2-0.4-0.2C202.4,526.2,202.6,532.5,202,541.3z"/>
<path class="st1" d="M195.6,577.1c-0.3,1-0.6,1.9-1,2.8l18-10.6l0,0.3c0.4-1.6,0.7-3.3,0.9-4.9l-18,12.5L195.6,577.1z"/>
<path class="st1" d="M198.1,568.2l16.2-13.4l0,0.3c0.1-4.4-0.4-8.8-1.4-13.1l-12.5,13.8C199.8,560.1,199,564.3,198.1,568.2z"/>
<path class="st1" d="M200.2,555.5l-19.4-21.6l0.1-0.2c-1.8,2.6-3.4,5.3-4.7,8.2l22.1,23.6C199.2,561.9,199.8,558.6,200.2,555.5z"/>
<path class="st1" d="M176.1,542.3L176.1,542.3c0-0.1,0.1-0.2,0.1-0.2L176.1,542.3z"/>
<path class="st1" d="M175,544.9l-0.1,0.2C174.9,545.1,174.9,545,175,544.9L175,544.9z"/>
<path class="st1" d="M198.3,565.9l-22.2-23.7c-0.4,0.9-0.7,1.7-1.1,2.7l22.7,23.5C197.9,567.6,198.1,566.8,198.3,565.9z"/>
<path class="st1" d="M213.6,564.4c0.4-3,0.7-6,0.7-9l-16.4,13.6c-0.7,2.6-1.4,5.2-2.1,7.6l17.8-12.4L213.6,564.4z"/>
<path class="st1" d="M172,566l18,23.5c1.5-2.9,2.8-5.8,3.9-8.8L172,557.6c-0.2,2.9-0.2,5.8-0.1,8.7L172,566z"/>
<path class="st1" d="M202.1,525.1l0.2-0.1c-3.9-2.1-8.2-1.9-12.3,0.3l11.8,16C202.4,531.8,202.1,525.2,202.1,525.1z"/>
<path class="st1" d="M194,581.5c-1,2.7-2.2,5.4-3.5,7.9l18.1-9.4l0,0.3c1.4-2.3,2.4-4.8,3.2-7.3c0.3-1,0.5-2,0.8-3l-18.2,10.7
	C194.2,580.9,194.1,581.2,194,581.5z"/>
<path class="st1" d="M201.7,542l-12.1-16.4l0.1-0.2c-3.4,2-6.4,4.7-8.7,8l19.2,21.5C201,550.3,201.4,545.9,201.7,542z"/>
<path class="st1" d="M194.1,580.2c1.3-3.7,2.5-7.4,3.4-11.2l-22.8-23.6c-0.5,1.5-1,3-1.5,4.6c-0.6,2.3-1,4.6-1.3,7L194.1,580.2
	L194.1,580.2z"/>
<path class="st1" d="M217.5,605.6c-2.7,2.9-5.9,6-9.4,9.1l18.1-2.6l-0.1,0.2c1.5-3,2.6-6.2,3.2-9.5l-0.1,0.2L217.5,605.6z"/>
<path class="st1" d="M228.7,593.3c-0.1-0.1-0.1-0.3-0.2-0.4c-0.7,0.9-4.5,5.8-10.6,12.2l11.3-2.5
	C229.9,599.5,229.7,596.3,228.7,593.3z"/>
<path class="st1" d="M190.2,628.5c-0.9,0.5-1.7,1.1-2.6,1.6l20.6,3.4l-0.1,0.2c1.3-1,2.6-2.1,3.9-3.2l-21.8-1.8L190.2,628.5z"/>
<path class="st1" d="M197.8,623.3l21,0l-0.1,0.2c2.9-3.4,5.3-7.1,7.3-11l-18.4,2.7C204.3,618.2,201,620.9,197.8,623.3z"/>
<path class="st1" d="M190.7,628.2l21.6,1.8l-0.1,0.2c2.2-2,4.3-4.2,6.3-6.5l-21.3,0C195,625.3,192.8,626.8,190.7,628.2z"/>
<path class="st1" d="M164.2,638.9c0.2-0.2,0.3-0.3,0.5-0.5c4.4-0.7,8.7-1.9,12.8-3.7l0.6-15.6c0.2-0.4,0.3-0.8,0.5-1.2l-0.6,16.6
	c3-1.3,5.8-2.7,8.6-4.3l-2-29c0.2-0.1,0.3-0.2,0.5-0.2l2,29l0,0c3.4-2,6.6-4.1,9.8-6.4l-2.2-28.5c0.2-0.1,0.3-0.2,0.5-0.3l2.2,28.5
	c0.7-0.5,1.4-1,2.1-1.6l-1.8-28.9c0.2-0.1,0.3-0.3,0.5-0.4l1.8,28.9c2.8-2.2,5.4-4.4,7.7-6.4l-1.1-29l0.2-0.1
	c-0.8,0.2-1.6,0.5-2.5,0.7c1.6-1.8,3-3.7,4.2-5.7l-18.3,9.5c-1.3,2.4-2.7,4.7-4.3,6.9c-0.3,0.3-0.7,0.6-1,0.9l0,0.3
	c-0.1,0.2-0.3,0.4-0.4,0.6l0-0.5c-0.2,0.2-0.5,0.5-0.7,0.7c2.3-2.9,4.3-6,6.1-9.3l-17.9-23.3c0.1,2.1,0.3,4.2,0.6,6.3
	c-1.7-2.7-3.7-5.2-6-7.3l0.1,0.2l-4.1,11.2c1,3.8,1.9,8.2,2.7,12.8l7.3-16.4c0,0.3,0.1,0.5,0.1,0.8l-7.3,16.4
	c0.7,4.3,1.2,8.5,1.6,12.6l8.8-13.8c0.1,0.2,0.1,0.4,0.2,0.6l-8.9,13.9c0.2,2.7,0.3,5.3,0.3,7.9l10.7-14.2c0.1,0.2,0.1,0.4,0.2,0.5
	l-10.8,14.3l-0.1-0.1c0,1,0,2-0.1,3l12.1-13.6c0.1,0.2,0.1,0.4,0.2,0.5l-12.3,13.9c0,0.3,0,0.6,0,0.9c-0.1,2.9-0.4,5.8-0.9,8.6
	l1.2-1.2c-0.2,0.5-0.4,0.9-0.6,1.4l-0.7,0.7c-0.1,0.4-0.2,0.9-0.2,1.3c-0.2,0.5-0.5,1.1-0.7,1.6c0.2-1,0.4-2,0.6-3l-24.2-16.6
	c6.3,16.1,18.2,31.5,19,32.5c0.6-1.2,1.2-2.3,1.7-3.6c0.1,0,0.3,0,0.4,0c-0.1,0.1-0.1,0.3-0.2,0.4c-0.1,0-0.2,0-0.2,0
	c0.1,0,0.1,0,0.2,0.1c-0.4,0.8-0.7,1.7-1.1,2.5c0.5-0.5,1.3-1.2,2.3-2.2c5.7,1.5,21,4.6,34.1,0l-20.1-4.4
	C173.3,636.9,168.8,638.2,164.2,638.9z M178.3,613.5l0.5-0.5l0,0.7l-0.5,0.5L178.3,613.5z"/>
<path class="st1" d="M228.3,592.6l0.2,0c-1.7-4.1-5.1-6.7-9.6-7.6l-1.1,19.8C224.3,598,228.3,592.7,228.3,592.6z"/>
<path class="st1" d="M186.2,630.9c-2.5,1.4-5.1,2.7-7.8,3.9l19.9,4.3l-0.2,0.2c2.5-0.9,4.9-2.1,7.1-3.6c0.9-0.6,1.7-1.2,2.5-1.8
	l-20.8-3.4C186.7,630.6,186.5,630.8,186.2,630.9z"/>
<path class="st1" d="M208,614.4c3.4-3.1,6.6-6.2,9.3-9l1.2-20.3l0.2-0.1c-3.9-0.7-8-0.4-11.8,0.6L208,614.4z"/>
<path class="st1" d="M166.4,565.5c-2.3-2.2-5.1-3.7-8.2-4.5c-0.1,0-0.3-0.1-0.4-0.1c0.4,1,2.5,7,4.7,15.5L166.4,565.5z"/>
<path class="st1" d="M165,590.4l-25.1-14.6l0-0.3c-0.9,3-1.6,6.1-1.9,9.2l28.3,15.6C166,596.9,165.5,593.5,165,590.4z"/>
<path class="st1" d="M138,585.3L138,585.3c0-0.1,0-0.2,0-0.3L138,585.3z"/>
<path class="st1" d="M137.7,588.2l0,0.3C137.7,588.4,137.7,588.3,137.7,588.2L137.7,588.2z"/>
<path class="st1" d="M166.4,601L138,585.3c-0.1,0.9-0.2,1.9-0.2,2.9l28.9,15.3C166.5,602.7,166.5,601.8,166.4,601z"/>
<path class="st1" d="M166.8,616.3l-28-15.1c0.7,2.8,1.6,5.6,2.6,8.3l0-0.3l24.4,16.8C166.4,622.8,166.7,619.6,166.8,616.3z"/>
<path class="st1" d="M157.4,560.9l0.1-0.1c-4.4-0.8-8.4,0.7-11.6,4l16.2,11.6C159.7,567.2,157.4,561,157.4,560.9z"/>
<path class="st1" d="M162.2,577.1l-16.5-11.8l0-0.3c-2.7,3-4.6,6.5-5.8,10.3l24.9,14.5C164.1,585.2,163.2,580.9,162.2,577.1z"/>
<path class="st1" d="M166.8,615.8c0.1-3.9,0.1-7.8-0.2-11.7l-28.9-15.4c-0.1,1.6-0.1,3.2,0,4.8c0.1,2.4,0.4,4.7,1,7L166.8,615.8
	L166.8,615.8z"/>
<path class="st2" d="M142.8,643.3h946l0,0v13.5c0,11.9-9.6,21.5-21.5,21.5l0,0H164.3c-11.9,0-21.5-9.6-21.5-21.5c0,0,0,0,0,0V643.3
	L142.8,643.3z"/>
<rect x="142.8" y="632.3" class="st3" width="946" height="19"/>
<path class="st4" d="M876-17.7l10.9,6.9l-6.6-12c1.9-1.5,4.2-2.3,6.6-2.3c0.1,0,0.1,0,0.2,0c0.8,0,1.5,0,2.3-0.2l3.7,2.3l-1.6-2.9
	c2.6-0.9,4.9-2.6,6.4-4.9l6.6,4.2l-4.2-7.6c3.9-4.6,9-7.5,14.8-7.5c6.9,0,13,4.1,16.9,10.4c2.4,3.9,6.6,6.2,11.2,6
	c0.1,0,0.2,0,0.4,0c7.6,0,13.7,8.6,13.7,19.2s-6.1,19.2-13.7,19.2c-1.7,0-3.3-0.4-4.8-1.2c-5.2-2.5-11.3-2.7-16.6-0.3
	c-4.5,2-9.6,2-14.1,0c-5.3-2.3-11.3-2.2-16.4,0.3c-1.5,0.8-3.1,1.2-4.7,1.2c-7.6,0-13.7-8.6-13.7-19.2C873.1-10.1,874-14.1,876-17.7
	z"/>
<path class="st4" d="M323.2,38.5l6.9,4.4l-4.2-7.6c1.2-0.9,2.7-1.5,4.2-1.5c0,0,0.1,0,0.1,0c0.5,0,1,0,1.4-0.1l2.3,1.5l-1-1.8
	c1.7-0.6,3.1-1.7,4.1-3.1l4.2,2.7l-2.6-4.8c2.3-2.9,5.7-4.7,9.4-4.7c4.4,0,8.2,2.6,10.7,6.6c1.5,2.5,4.2,3.9,7.1,3.8
	c0.1,0,0.2,0,0.2,0c4.8,0,8.7,5.5,8.7,12.2s-3.9,12.2-8.7,12.2c-1.1,0-2.1-0.3-3-0.8c-3.3-1.6-7.2-1.7-10.5-0.2
	c-2.9,1.3-6.1,1.3-9,0c-3.3-1.5-7.2-1.4-10.5,0.2c-0.9,0.5-2,0.7-3,0.7c-4.8,0-8.7-5.5-8.7-12.2C321.3,43.4,322,40.8,323.2,38.5z"/>
<path class="st4" d="M137.2,62l6.9,4.4l-4.2-7.6c1.2-0.9,2.7-1.5,4.2-1.5c0,0,0.1,0,0.1,0c0.5,0,1,0,1.4-0.1l2.3,1.5l-1-1.8
	c1.7-0.6,3.1-1.7,4.1-3.1l4.2,2.7l-2.6-4.8c2.3-2.9,5.7-4.7,9.4-4.7c4.4,0,8.2,2.6,10.7,6.6c1.5,2.5,4.2,3.9,7.1,3.8
	c0.1,0,0.2,0,0.2,0c4.8,0,8.7,5.5,8.7,12.2s-3.9,12.2-8.7,12.2c-1.1,0-2.1-0.3-3-0.8c-3.3-1.6-7.2-1.7-10.5-0.2
	c-2.9,1.3-6.1,1.3-9,0c-3.3-1.5-7.2-1.4-10.5,0.2c-0.9,0.5-2,0.7-3,0.7c-4.8,0-8.7-5.5-8.7-12.2C135.3,66.9,136,64.3,137.2,62z"/>
<path class="st3" d="M176,526.2c2.3-4.1,3.5-8.7,3.5-13.4c0-12.1-7.5-22-16.8-22s-16.8,9.8-16.8,22c0,4.7,1.2,9.3,3.5,13.4
	c-4.7,8.3-4.7,18.5,0,26.9c-4.7,8.3-4.7,18.5,0,26.9c-4.7,8.3-4.7,18.5,0,26.9c-2.3,4.1-3.5,8.7-3.5,13.4c0,12.1,7.5,22,16.8,22
	s16.8-9.8,16.8-22c0-4.7-1.2-9.3-3.5-13.4c4.7-8.3,4.7-18.5,0-26.9c4.7-8.3,4.7-18.5,0-26.9C180.7,544.7,180.7,534.5,176,526.2z"/>
<ellipse class="st3" cx="162.8" cy="485.9" rx="16.8" ry="22"/>
<ellipse class="st3" cx="162.8" cy="459" rx="16.8" ry="22"/>
<path class="st4" d="M225.6,275.2c2.3-2.9,4.4-6,6.3-9.2l-44.1-7.2l47.7,0.4c9.2-20.1,9.8-43.2,1.5-63.7l-64,33.2l59-43.4
	c-22.2-38.4-71.4-51.6-109.9-29.3s-51.6,71.4-29.3,109.9c1.9,3.3,4,6.4,6.4,9.4c-3.6,4.5-6.6,9.5-9.2,14.7l57.3,29.7l-61-20.5
	c-8.7,25.7-3.8,54.1,13,75.5c-27.5,34.9-21.4,85.5,13.5,112.9c34.9,27.5,85.5,21.4,112.9-13.5c22.9-29.2,22.9-70.3,0-99.4
	C248.5,345.5,248.5,304.4,225.6,275.2L225.6,275.2z"/>
<path class="st4" d="M82,325c0,18,6,35.6,17.2,49.7c-27.5,34.9-21.4,85.5,13.5,112.9c34.9,27.5,85.5,21.4,112.9-13.5
	c22.9-29.2,22.9-70.3,0-99.4C236.4,361,82,315.9,82,325z"/>
<path class="st5" d="M225.6,275.2c2.3-2.9,4.4-6,6.3-9.2l-44.1-7.2l47.7,0.4c9.2-20.1,9.8-43.2,1.5-63.7l-64,33.2l59-43.4
	c-22.2-38.4-71.4-51.6-109.9-29.3s-51.6,71.4-29.3,109.9c1.9,3.3,4,6.4,6.4,9.4c-3.6,4.5-6.6,9.5-9.2,14.7l57.3,29.7l-61-20.5
	c-8.7,25.7-3.8,54.1,13,75.5c-27.5,34.9-21.4,85.5,13.5,112.9c34.9,27.5,85.5,21.4,112.9-13.5c22.9-29.2,22.9-70.3,0-99.4
	C248.5,345.5,248.5,304.4,225.6,275.2L225.6,275.2z"/>
<path class="st6" d="M82,325c0,18,6,35.6,17.2,49.7c-27.5,34.9-21.4,85.5,13.5,112.9c34.9,27.5,85.5,21.4,112.9-13.5
	c22.9-29.2,22.9-70.3,0-99.4C236.4,361,82,315.9,82,325z"/>
<g>
	<ellipse class="st3" cx="714.5" cy="642.8" rx="359.1" ry="16.6"/>
	<path class="st7" d="M1004.6,636.7c2.4-4.3-0.3-9.7-3.4-13.5c-3.1-3.9-6.8-7.9-6.7-12.8c0.1-7.1,7.6-11.3,13.7-15
		c4.5-2.8,8.6-6.1,12.3-9.9c1.5-1.4,2.8-3.2,3.8-5c1.2-2.8,1.2-5.9,1.1-9c-0.3-10.1-0.8-20.2-1.5-30.3"/>
	<path class="st8" d="M1035.3,540.5c-0.2-3.8-2.3-7.2-5.5-9.1l-2.5,4.9l0.1-5.9c-5.8-1.7-12,1.6-13.7,7.4c-0.4,1.2-0.5,2.5-0.5,3.7
		c0.3,6.1,5.5,10.8,11.6,10.5C1030.8,551.8,1035.5,546.6,1035.3,540.5L1035.3,540.5L1035.3,540.5z"/>
	<path class="st8" d="M1015.5,615.4c-2.8,5.4-9.4,7.6-14.9,4.8s-7.6-9.4-4.8-14.9c2.8-5.4,9.4-7.6,14.9-4.8c2.4,1.3,4.3,3.4,5.3,6
		l-6.9,5.6l7.6-1.8C1016.7,612.1,1016.3,613.8,1015.5,615.4z"/>
	<path class="st8" d="M1010.1,593.9c-6.1,0.3-11.3-4.4-11.6-10.5c0,0,0,0,0,0c-0.1-1.7,0.2-3.5,1-5c1.3-3,3.9-5.2,7.1-6.1l-0.1,4.6
		l2.5-5l0,0c6.1-0.3,11.3,4.4,11.6,10.5S1016.1,593.6,1010.1,593.9L1010.1,593.9z"/>
	<path class="st8" d="M1036.9,576c-6.1,0.3-11.3-4.4-11.6-10.5c-0.3-6.1,4.4-11.3,10.5-11.6c2.1-0.1,4.1,0.4,5.9,1.4l-2,5.4l4-3.9
		c2.2,2,3.4,4.7,3.6,7.6c0.1,1,0,2-0.3,3C1046,572.3,1041.8,575.8,1036.9,576z"/>
	<path class="st6" d="M1033.8,543.4c-2.6,0.3-5,1.1-7.6,1.2s-5.4-0.5-7-2.5c-0.9-1.1-1.3-2.4-2-3.6c-0.7-1.1-1.7-2-2.8-2.6
		c-2.6,5.5-0.3,12.1,5.2,14.7c5.5,2.6,12.1,0.3,14.7-5.2c0.3-0.7,0.6-1.4,0.8-2.2C1034.6,543.3,1034.2,543.4,1033.8,543.4z"/>
	<path class="st6" d="M1036.9,576c-6.1,0.3-11.3-4.4-11.6-10.5c-0.1-1.8,0.3-3.7,1.1-5.3c0.9,0.6,1.6,1.4,2.2,2.2
		c0.8,1.2,1.3,2.6,2.2,3.7c1.7,2,4.7,2.7,7.3,2.6s5.2-0.9,7.9-1.1c0.4,0,0.7-0.1,1.1-0.1C1046,572.3,1041.8,575.7,1036.9,576z"/>
	<path class="st6" d="M1010.1,593.9c-6.1,0.3-11.3-4.4-11.6-10.5c0,0,0,0,0,0c-0.1-1.7,0.2-3.5,1-5c0.9,0.6,1.7,1.4,2.4,2.2
		c0.9,1.2,1.4,2.6,2.4,3.7c1.9,2.1,5,2.8,7.8,2.7s5.4-0.7,8.1-0.9C1018.7,590.5,1014.7,593.7,1010.1,593.9z"/>
	<path class="st6" d="M1015.5,615.4c-2.5,5.6-9,8.1-14.6,5.6c-5.6-2.5-8.1-9-5.6-14.6c0.9,0.6,1.7,1.3,2.4,2.2c1,1.3,1.7,2.7,3,3.9
		c2.3,2.2,5.9,3.2,9.2,3.2C1011.8,615.7,1013.7,615.6,1015.5,615.4z"/>
	<path class="st9" d="M987.9,631.7c0,0,8.7-0.3,11.4-2.1s13.4-4.1,14.1-1.1c0.7,3,13.1,15,3.3,15s-22.9-1.6-25.5-3.2
		S987.9,631.7,987.9,631.7z"/>
	<path class="st10" d="M1016.8,642.4c-9.9,0.1-22.9-1.6-25.5-3.2c-2-1.2-2.8-5.6-3.1-7.6h-0.3c0,0,0.6,7,3.2,8.7
		c2.6,1.6,15.7,3.2,25.5,3.2c2.8,0,3.8-1,3.8-2.5C1020,641.8,1018.9,642.4,1016.8,642.4z"/>
	<path class="st7" d="M508.7,612.4c-5.7-10.6,0.8-23.6,8.2-33c7.4-9.4,16.6-19.3,16.4-31.3c-0.3-17.3-18.6-27.5-33.3-36.7
		c-10.9-6.8-20.9-14.9-29.9-24c-3.6-3.7-7.1-7.6-9.2-12.3c-3-6.8-2.9-14.4-2.8-21.9c0.6-24.7,1.8-49.4,3.7-74"/>
	<path class="st8" d="M433.9,377.9c0.4-9.2,5.5-17.5,13.5-22.1l6,11.9l-0.2-14.5c14.3-4.2,29.3,4,33.5,18.3
		c4.2,14.3-4,29.3-18.3,33.5c-14.3,4.2-29.3-4-33.5-18.3C434.1,383.9,433.8,380.9,433.9,377.9L433.9,377.9z"/>
	<path class="st8" d="M482,560.4c6.8,13.2,23,18.5,36.3,11.7c8.6-4.4,14.2-13.1,14.6-22.7c0.2-3.7-0.4-7.5-1.8-10.9
		c-5.4-13.9-21-20.8-34.9-15.5c-7.2,2.8-12.9,8.5-15.6,15.8l16.8,13.7l-18.5-4.3C479,552.4,480,556.6,482,560.4z"/>
	<path class="st8" d="M495.3,508c14.9,0.7,27.5-10.8,28.2-25.7c0.6-12.5-7.6-23.8-19.6-27.2l0.1,11.1l-6.1-12.1h-0.1
		c-14.9-0.7-27.5,10.8-28.2,25.7C469,494.7,480.5,507.4,495.3,508L495.3,508L495.3,508z"/>
	<path class="st8" d="M429.9,464.5c14.9,0.7,27.5-10.8,28.3-25.6c0.7-14.9-10.7-27.5-25.6-28.3c-5.1-0.2-10.1,0.9-14.5,3.4l4.7,13.1
		l-9.8-9.4c-5.3,4.8-8.4,11.5-8.7,18.6c-0.1,2.5,0.1,5,0.7,7.4C407.6,455.4,417.8,463.9,429.9,464.5z"/>
	<path class="st6" d="M437.5,385.1c6.2,0.7,12.3,2.6,18.5,3c6.2,0.4,13.1-1.1,17.1-6c2.1-2.6,3.2-5.9,5-8.8c1.7-2.7,4-4.9,6.8-6.4
		c6.7,13.3,1.3,29.5-12,36.2c-13.3,6.7-29.5,1.3-36.2-12c-1-2-1.8-4.1-2.2-6.3C435.5,384.9,436.5,384.9,437.5,385.1z"/>
	<path class="st6" d="M429.9,464.5c14.9,0.7,27.5-10.8,28.2-25.7c0.2-4.4-0.7-8.8-2.5-12.7c-2.1,1.4-4,3.3-5.4,5.4
		c-1.9,2.9-3.1,6.3-5.3,8.9c-4.2,4.9-11.4,6.6-17.9,6.3s-12.8-2.2-19.3-2.7c-0.9-0.1-1.8-0.1-2.7-0.2
		C407.6,455.4,417.8,463.9,429.9,464.5z"/>
	<path class="st6" d="M495.3,508c14.9,0.7,27.5-10.8,28.2-25.7c0.2-4.2-0.6-8.4-2.3-12.3c-2.2,1.5-4.2,3.3-5.7,5.5
		c-2.1,3-3.4,6.4-5.9,9.1c-4.5,5.1-12.2,6.9-19.1,6.7c-6.7-0.1-13.1-1.8-19.7-2.3C474.2,499.9,484,507.5,495.3,508z"/>
	<path class="st6" d="M482,560.4c6.8,13.2,23,18.5,36.3,11.7c8.6-4.4,14.2-13.1,14.6-22.7c0.2-3.7-0.4-7.5-1.8-10.9
		c-2.2,1.5-4.2,3.2-5.9,5.3c-2.6,3.2-4.3,6.7-7.2,9.6c-5.5,5.4-14.4,7.6-22.3,7.9C491.1,561.2,486.6,560.9,482,560.4z"/>
	<polygon class="st1" points="695.4,628.1 591.3,649.4 588.9,649.1 497.5,639.9 497.5,524.1 609.4,505.1 690.6,514.6 690.7,515.1 
		690.7,515.4 	"/>
	<polygon class="st6" points="695.4,628.1 591.3,649.4 588.9,649.1 588.9,530.4 690.7,515.1 	"/>
	<polygon class="st11" points="690.7,515.4 690.6,515.4 588.9,530.4 497.5,524.1 609.4,505.1 690.6,514.6 690.7,515.1 	"/>
	<polygon class="st3" points="809.7,632.8 705.6,654.1 703.2,653.9 611.8,644.7 611.8,528.8 723.7,509.9 804.9,519.3 805,519.8 
		805,520.1 	"/>
	<polygon class="st6" points="809.7,632.8 705.6,654.1 703.2,653.9 703.2,535.1 805,519.8 	"/>
	<polygon class="st11" points="805,520.1 804.9,520.1 703.2,535.1 611.8,528.8 723.7,509.9 804.9,519.3 805,519.8 	"/>
	<polygon class="st3" points="737.9,519.3 633.9,540.6 631.5,540.4 540.1,531.1 540.1,415.3 652,396.4 733.2,405.8 733.2,406.3 
		733.2,406.6 	"/>
	<polygon class="st6" points="737.9,519.3 633.9,540.6 631.5,540.4 631.5,421.6 733.2,406.3 	"/>
	<polygon class="st11" points="733.2,406.6 733.2,406.6 631.5,421.6 540.1,415.3 652,396.4 733.2,405.8 733.2,406.3 	"/>
	<polygon class="st3" points="797,524.2 742.7,535.3 741.5,535.2 693.8,530.3 693.8,469.9 752.2,460 794.6,464.9 794.6,465.2 
		794.6,465.3 	"/>
	<polygon class="st6" points="797,524.2 742.7,535.3 741.5,535.2 741.5,473.2 794.6,465.2 	"/>
	<polygon class="st11" points="794.6,465.3 794.6,465.3 741.5,473.2 693.8,469.9 752.2,460 794.6,464.9 794.6,465.2 	"/>
	<polygon class="st3" points="651.2,406.7 596.9,417.8 595.7,417.7 548,412.9 548,352.4 606.4,342.5 648.7,347.5 648.8,347.8 
		648.8,347.9 	"/>
	<polygon class="st6" points="651.2,406.7 596.9,417.8 595.7,417.7 595.7,355.7 648.8,347.8 	"/>
	<polygon class="st11" points="648.8,347.9 648.7,347.9 595.7,355.7 548,352.4 606.4,342.5 648.7,347.5 648.8,347.8 	"/>
	<polygon class="st1" points="746.6,404.4 692.3,415.5 691.1,415.3 643.3,410.5 643.3,350.1 701.8,340.2 744.1,345.1 744.1,345.4 
		744.1,345.5 	"/>
	<polygon class="st6" points="746.6,404.4 692.3,415.5 691.1,415.3 691.1,353.4 744.1,345.4 	"/>
	<polygon class="st11" points="744.1,345.5 744.1,345.5 691.1,353.4 643.3,350.1 701.8,340.2 744.1,345.1 744.1,345.4 	"/>
	<polygon class="st3" points="775,343.7 720.7,354.8 719.4,354.7 671.7,349.8 671.7,289.4 730.1,279.5 772.5,284.4 772.5,284.7 
		772.5,284.8 	"/>
	<polygon class="st6" points="775,343.7 720.7,354.8 719.4,354.7 719.4,292.7 772.5,284.7 	"/>
	<polygon class="st11" points="772.5,284.8 772.5,284.8 719.4,292.7 671.7,289.4 730.1,279.5 772.5,284.4 772.5,284.7 	"/>
	<path class="st12" d="M812,220c-0.6,5.1-4.5,9.3-5.9,14.2c-2.2,7.4,1.6,15.5,6.7,21.3c8.4,9.4,20.2,15,32.8,15.6
		c1.8,0.2,3.7,0,5.4-0.6c1.6-0.6,3-1.6,4.1-2.8c3.9-3.9,6-9.3,6.8-14.7c0.8-5.4,0.5-11,0.2-16.5c0-1.1-0.2-2.3-0.6-3.3
		c-0.5-1-1.3-1.9-2.1-2.6c-2.8-2.6-5.9-4.8-9.2-6.7c-1.4-0.8-2.9-1.6-3.8-2.9c-0.6-1.1-1-2.3-1.2-3.5l-1-5.2
		c-0.2-1.5-0.7-2.9-1.5-4.2c-1.8-2.4-5.2-2.7-8.2-2.9l-11-0.4c-3.4-0.1-7.9-1.1-11.3-0.4c-3.2,0.6-2.1,3.5-1.5,6.1
		C811.4,213.5,811.9,216.8,812,220z"/>
	<path class="st6" d="M812,220c-0.6,5.1-4.5,9.3-5.9,14.2c-2.2,7.4,1.6,15.5,6.7,21.3c8.4,9.4,20.2,15,32.8,15.6
		c1.8,0.2,3.7,0,5.4-0.6c1.6-0.6,3-1.6,4.1-2.8c3.9-3.9,6-9.3,6.8-14.7c0.8-5.4,0.5-11,0.2-16.5c0-1.1-0.2-2.3-0.6-3.3
		c-0.5-1-1.3-1.9-2.1-2.6c-2.8-2.6-5.9-4.8-9.2-6.7c-1.4-0.8-2.9-1.6-3.8-2.9c-0.6-1.1-1-2.3-1.2-3.5l-1-5.2
		c-0.2-1.5-0.7-2.9-1.5-4.2c-1.8-2.4-5.2-2.7-8.2-2.9l-11-0.4c-3.4-0.1-7.9-1.1-11.3-0.4c-3.2,0.6-2.1,3.5-1.5,6.1
		C811.4,213.5,811.9,216.8,812,220z"/>
	<path class="st13" d="M882,450.8l-4.7,51.3c-1.2,13.5-2.5,27-4.9,40.3c-0.8,4.6-1.8,9.1-2.9,13.7c-3.2,12.5-7.8,24.8-9.3,37.7
		c0,0.4-0.1,0.8-0.1,1.1c-0.3,2.8-0.6,5.7-1.6,8.4c-0.8,2-1.9,3.8-2.7,5.7c-1.6,3.9-1.8,8.2-2,12.4c-5.7-3.2-11.9-5.3-18.4-6.3
		c-3.2-0.5-6.6-0.8-8.7-3.2c-2.4-2.6-2.1-6.5-1.7-10c1.2-10.7,2.5-21.4,3.7-32.1c0.4-4.6,1.2-9.2,2.4-13.7c0.4-1.5,0.9-3,1.5-4.4
		c0.7-2,1.4-4,2-6.1c0.8-3.3,1.3-6.7,1.6-10.1c1.3-10.8,2.8-21.5,4.1-32.3l0.1-0.6c2-16.3,3.5-32.7,3.1-49.2
		c-0.1-2.4-0.2-4.9-0.3-7.3c-0.2-3.5-0.5-5.4,2.4-7.6c3.2-2.4,7.5-4.2,11.2-5.8c2-0.9,24-8.7,24.4-7c1,3.7,1.5,7.4,1.6,11.2
		C882.7,441.5,882.5,446.2,882,450.8z"/>
	<path class="st6" d="M872.5,542.4c-0.8,4.6-1.8,9.1-2.9,13.7c-3.2,12.5-7.8,24.8-9.3,37.7c0,0.4-0.1,0.8-0.1,1.1
		c-9.8-14-18-29-27.6-43.2c0.7-2,1.4-4,2-6.1c0.8-3.3,1.3-6.8,1.6-10.2c1.3-10.8,2.8-21.5,4.1-32.3l0.1-0.6c0.6,2.3,1.3,4.5,2.4,6.6
		c6.4,13,21.7,19.6,29.1,32.1C872.1,541.6,872.3,542,872.5,542.4z"/>
	<path class="st13" d="M793.1,427.8c0.3,10.5,2,20.8,3.7,31.1l3.4,21.3c1.9,11.7,3.9,23.6,9.4,34c4.1,7.8,10.1,14.5,15.5,21.5
		c13.2,17.2,23.2,36.8,35.7,54.5c3.6,5.2,8.9,10.7,15.1,9.7c4.1-0.7,7-4.1,10.2-6.7c3.8-3.1,8.3-5.4,11.3-9.2
		c3-3.9,3.6-10.3-0.5-13.1c-1.4-0.9-3.1-1.3-4.6-1.9c-6.3-2.4-10.3-8.5-12.9-14.7s-4.1-12.8-7.6-18.6c-7.5-12.5-22.7-19.1-29.1-32.1
		c-3.6-7.3-3.9-15.8-4.2-23.9l-0.7-20.7c-0.1-2.3-0.1-4.6,0.8-6.7c2.5-5.5,9.9-6,15.9-6.7c6.8-0.8,13.4-2.9,19.4-6.1
		c3.5-1.9,6.8-4.2,8.7-7.7c1.7-3.2,1.9-6.9,2.1-10.4l2.1-37.6c0.2-3.2,0.3-6.6-0.8-9.6c-2.9-7.6-12.5-10.1-20.6-9.7
		c-15.1,0.7-29.1,7.2-43.4,11.6c-3.5,1.1-7.1,2.1-10.7,2.8c-3.2,0.6-7.1,0.4-10.1,1.4c-5.4,1.8-5.3,13.7-6.1,18.6
		C793.5,408.3,792.8,418.1,793.1,427.8z"/>
	<path class="st14" d="M873.7,601.5c1.3,1.3,1.8,3.3,2.1,5.2c1.9,10.3,2.9,20.8,3,31.3c-0.1,1,0.1,2,0.6,2.8
		c0.4,0.5,0.9,0.9,1.5,1.2c3.9,1.8,8.3-0.7,11.5-3.5c6-5.2,11-12.2,11.3-20.1c0.1-2-0.1-4.1,0.2-6.1c0.5-3,2.3-5.6,3.8-8.2
		c2.6-4.4,4.7-9.1,6.3-14c0.6-1.8,1-4.2-0.5-5.4c-0.5-0.4-1.1-0.7-1.7-0.9l-17.4-6.5c-1.5-0.6-5.3,9.1-5.9,10.1
		c-1.5,2.6-2.9,4-5.8,4.6c-2.9,0.6-6.5-0.3-9.3,1.2C868.7,595.7,871.1,598.8,873.7,601.5z"/>
	<path class="st14" d="M846.9,607.4c-0.3-0.6-0.8-1.2-1.3-1.7c-0.8-0.5-1.7-0.8-2.7-0.9c-3.3-0.6-7.2-0.9-9.5,1.5
		c-2.1,2.3-1.8,6.1-3.6,8.7c-0.6,0.8-1.3,1.5-1.8,2.4c-0.6,1.3-0.9,2.8-0.8,4.2c-0.1,4-0.2,8,0.1,12c0.2,3.4,0.8,6.9,2.9,9.5
		c3.4,4.2,9.5,4.8,14.9,5.1l4.4,0.2c1.2,0.1,2.4,0,3.6-0.3c1.4-0.7,2.6-1.9,3.1-3.4c2.3-5.7-1.3-11.8-3.5-17.4
		C849.9,620.8,850.4,613.6,846.9,607.4z"/>
	<path class="st3" d="M810.7,191.1c-0.1-0.6,0-1.2,0.2-1.7c0.6-1.1,2.3-0.8,3.6-0.5c5.1,1.3,10.4,0.1,15.6,0.4
		c5.2,0.3,11.1,2.9,12.2,8c3.8-2.7,7.1-6,9.6-9.9c1.5-2.2,2.7-4.7,2.5-7.3c-0.3-3.8-3.4-6.6-6.3-8.9l-8.7-7.1
		c-1.1-1-2.5-1.9-3.9-2.5c-2-0.7-4.2-0.4-6.3-0.4c-6.3,0-13.1-2.9-18.7,0c-2.4,1.2-4.1,3.3-5.8,5.3l-7.7,9.2c-0.6,0.6-1,1.3-1.2,2.1
		c-0.2,1.1,0.4,2.2,0.6,3.4c0.4,2-0.5,4.2,0.2,6.2c1.1,3.3,5.1,3.7,7.5,5.6c0.9,0.7,2.3,3.1,3.4,3
		C809.3,196.1,810.6,192.7,810.7,191.1z"/>
	<circle class="st12" cx="823.8" cy="193.4" r="24.8"/>
	<path class="st3" d="M829.7,247.7c-1.7-4.9-6.4-8.2-11.7-8.1c-0.7,0.1-1.5,0-2.2-0.3c-0.4-0.3-0.7-0.7-0.9-1.1
		c-1.5-2.7-2.7-5.6-3.6-8.6c-0.4-1.3-0.9-2.9-2.3-3.2c-1.1-0.3-2.2,0.4-2.9,1.3c-0.6,0.9-1.3,1.8-2.1,2.6c-3.2,2.8-8.7,0.2-12,2.8
		c-0.5,0.4-1,1-1.6,1.3c-0.6,0.3-1.2,0.6-1.8,0.8c-6.4,2.1-12.7,4.5-18.8,7.4c2.2,13.3,4.5,26.8,9.6,39.2c2.5,5.9,5.2,11.7,7.2,17.8
		c4.4,13.5,4.6,28,4.6,42.1c0,9.7,0,19.6-3.2,28.8c-0.7,2.1-1.6,4.1-1.8,6.3c-0.2,2.2,0.4,4.6,2.2,5.9c1,0.7,2.2,1.1,3.4,1.2
		c5.4,0.8,10.9-0.6,16.3-1.9c14.4-3.3,29-5.2,43.7-7.1l24.5-3.2c1.8-0.1,3.5-0.6,5.1-1.3c4.5-2.5,4.9-9.2,2.1-13.5
		c-1.3-2.1-3.2-3.7-4.3-5.9c-1.1-2.2-1.2-5.2,0.7-6.7c3.9-3.1,2.8-8.8,2.9-13.8c0.5-13.9,0.5-27.9-0.2-41.8
		c-0.2-2.9-0.2-5.8-0.1-8.7c0.3-4.9,1.5-9.7,2.7-14.5l7.4-29.3c-1.9-3.1-5.7-5-9.2-5.9c-3.5-0.9-7.2-1.1-10.7-2.2
		c-7.1-2.2-13.5-7.8-20.9-7.3c-0.6,0-1.1,0.1-1.6,0.4c-1.7,1-1.4,3.4-1.5,5.3c-0.2,4.3-3.4,7.8-6.8,10.3c-3.5,2.5-7.4,4.3-10.6,7.2
		C830.4,245,829.7,246.3,829.7,247.7z"/>
	<path class="st12" d="M731.3,275.5c-1.6,1.1-3.4,2-5.2,2.7c-1.7,0.7-3.6,1.2-5,2.4c-0.7,0.6-1.3,1.3-1.7,2.2
		c-2.6,4.6-1,10.4,3.6,13c1.6,0.9,3.4,1.3,5.2,1.2c2.3-0.1,4.4-1,6.5-1.9l17.5-7.6c3-1.3,6.2-2.8,7.6-5.7c0.2-0.3,0.2-0.6,0.2-0.9
		c-0.1-0.3-0.4-0.6-0.7-0.8c-3.9-2.6-7.4-5.8-10.2-9.6c-0.7-1-1.6-3.3-2.6-3.9C742.7,264.5,734.3,273.6,731.3,275.5z"/>
	<path class="st12" d="M918.5,269.3l6.5,7.4c1.4,1.6,2.8,3.2,4,4.9c3.1,4.3,5.6,9,7.4,13.9c1.4,3.7,2.6,7.6,2.1,11.5
		c-0.3,2-0.9,4-1.6,5.9c-1.2,3.6-2.7,7.2-4.4,10.6c-1.5,2.6-3.1,5-4.9,7.4c-5,6.6-10.5,12.9-16.4,18.7c-2.2,2.2-3.2,5.7-4.1,8.7
		c-1.8,5.4-6,9.7-10.1,13.7c-1.3,1.4-2.8,2.6-4.3,3.7c-2.3,1.5-5.1,2.3-7.9,2.2c-1.2,0-2.4-0.2-3.5-0.7c-2.8-1.3-4.2-4.5-4.5-7.6
		c-0.3-2.8,0.2-5.6,1.4-8.2c3.7-8.2,13.2-11.8,19.9-17.8c3.9-3.5,7-7.9,9.9-12.3c2-2.7,3.7-5.7,5-8.8c1.5-4,0.9-8.8,2.2-12.8
		c0.6-1.7,1.6-3.3,2.1-5c0.6-1.7,0.7-3.7-0.3-5.2c-0.8-0.9-1.8-1.7-2.9-2.1c-4.3-2.2-9.1-5-9.9-9.7c-0.3-2.6,0.4-5.3,1.9-7.4
		c1.6-2.1,3.4-4,5.4-5.7C913.5,272.8,916.6,271,918.5,269.3z"/>
	<path class="st12" d="M727.1,285.8c-1.1-2.3-2.6-4.7-4.9-5.8c-2.3-1-4.8-1-7.1,0c-2.2,1-4.3,2.2-6.2,3.8l-5.6,4.1
		c-1.3,0.8-2.4,1.9-3.3,3.1c-0.9,1.4-1.5,3.1-1.7,4.7c-0.8,3.8-1.4,7.8-0.9,11.7c0.9,6.3,4.7,11.8,8.8,16.6c2.6,3,5.8,6,9.8,6.1
		c1.7,0.1,3.6-0.6,4.3-2.2c0.2-0.6,0.4-1.3,0.4-1.9c0.4-7-2.1-13.8-5-20.2c-0.8-1.7-1.6-3.5-1.6-5.4c0-0.3,0.1-0.6,0.2-0.9
		c0.3-0.3,0.6-0.4,0.9-0.5c4-0.8,10.9,2.3,13.7-2.1C730.9,293.8,728.4,288.4,727.1,285.8z"/>
	<path class="st3" d="M809.4,183.3c0-0.6,0-1.2,0.3-1.7c0.6-1.1,2.3-0.8,3.6-0.5c5.1,1.3,10.4,0.1,15.6,0.4c5.2,0.3,11.1,2.9,12.2,8
		c3.8-2.7,7.1-6,9.6-9.9c1.5-2.2,2.7-4.7,2.5-7.3c-0.3-3.8-3.4-6.6-6.3-8.9l-8.7-7.1c-1.1-1-2.5-1.9-3.9-2.5c-2-0.7-4.2-0.4-6.3-0.4
		c-6.3,0-13.1-2.9-18.7,0c-2.4,1.2-4.1,3.3-5.8,5.3l-7.8,9.2c-0.6,0.6-1,1.3-1.2,2.1c-0.2,1.1,0.4,2.2,0.6,3.4
		c0.4,2-0.5,4.2,0.2,6.2c1.1,3.3,5.1,3.7,7.5,5.6c0.9,0.7,2.3,3.1,3.4,3C808,188.3,809.3,184.8,809.4,183.3z"/>
	<path class="st3" d="M756.7,251.4c-1,0.6-1.9,1.5-2.6,2.4c-0.9,1.4-1.1,3.2-1.9,4.6c-1.7,3.1-5.6,4.2-8,6.8
		c-0.4,0.3-0.7,0.8-0.8,1.3c0,0.7,0.2,1.4,0.7,1.9l11.8,18.5c3.9,0.3,7.7-2.1,11.6-1.8c1.5,0.1,3,0.6,4.4,0.2c1-0.4,1.9-1,2.8-1.7
		c2.4-1.5,5.5-1.7,7.4-3.6c2-1.9,2.1-4.8,2.1-7.5c0-2.3-0.2-4.6-0.7-6.9c-1.7-7.1-7.2-12.6-10.6-18.9c-1.7-3.1-2.6-4.9-6.1-2.8
		S760,248.9,756.7,251.4z"/>
	<path class="st3" d="M899.7,242c2.2,1.4,4.2,3.2,5.9,5.2c1.8,2.3,2.8,5.1,4.5,7.5c1.7,2.4,3.9,4.1,5.8,6.2c2.9,3.2,4.8,7.1,6.7,11
		c-4.7,6.1-9.8,11.8-15.2,17.2c-0.6,0.7-1.4,1.2-2.3,1.5c-1.2,0.1-2.5-0.4-3.3-1.3c-0.9-0.9-1.5-2-2.3-2.9c-1.9-2-4.5-3.2-7.2-3.5
		c-2.7-0.3-5.4-0.3-8.2-0.1c-0.6,0.1-1.2,0-1.7-0.3c-0.4-0.3-0.7-0.7-0.9-1.1c-3.2-5.4-2.2-12.2-1-18.4l2.6-14.2
		c0.4-2.7,1.1-5.4,2.2-7.9c1-2.1,3.2-5.6,5.8-5C893.8,236.5,897.4,240.4,899.7,242z"/>
	<polygon class="st1" points="674.9,346 620.6,357.1 619.3,357 571.6,352.2 571.6,291.7 630,281.8 672.4,286.8 672.4,287.1 
		672.4,287.2 	"/>
	<polygon class="st6" points="674.9,346 620.6,357.1 619.3,357 619.3,295 672.4,287.1 	"/>
	<polygon class="st11" points="672.4,287.2 672.4,287.2 619.3,295 571.6,291.7 630,281.8 672.4,286.8 672.4,287.1 	"/>
	<polygon class="st3" points="703.2,286.1 648.9,297.2 647.7,297.1 600,292.3 600,231.8 658.4,221.9 700.8,226.9 700.8,227.1 
		700.8,227.3 	"/>
	<polygon class="st6" points="703.2,286.1 648.9,297.2 647.7,297.1 647.7,235.1 700.8,227.1 	"/>
	<polygon class="st11" points="700.8,227.3 700.8,227.3 647.7,235.1 600,231.8 658.4,221.9 700.8,226.9 700.8,227.1 	"/>
</g>
<g>
	<ellipse class="st3" cx="57.9" cy="-882.7" rx="455.5" ry="21"/>
	<path class="st7" d="M425.9-890.6c3-5.5-0.4-12.3-4.3-17.2s-8.6-10-8.5-16.3c0.1-9,9.7-14.3,17.3-19.1c5.7-3.5,10.9-7.7,15.5-12.5
		c2-1.8,3.6-4,4.8-6.4c1.6-3.5,1.5-7.5,1.4-11.4c-0.3-12.8-1-25.7-1.9-38.5"/>
	<path class="st8" d="M464.8-1012.6c-0.2-4.8-2.9-9.1-7-11.5l-3.1,6.2l0.1-7.5c-7.4-2.2-15.2,2-17.4,9.4c-0.5,1.5-0.7,3.1-0.6,4.7
		c0.4,7.7,6.9,13.7,14.7,13.3C459.2-998.3,465.1-1004.8,464.8-1012.6L464.8-1012.6L464.8-1012.6z"/>
	<path class="st8" d="M439.8-917.6c-3.5,6.9-12,9.6-18.9,6c-6.9-3.5-9.6-12-6-18.9c3.5-6.9,12-9.6,18.9-6c3.1,1.6,5.5,4.3,6.7,7.6
		l-8.8,7.1l9.6-2.2C441.4-921.7,440.8-919.5,439.8-917.6z"/>
	<path class="st8" d="M432.9-944.8c-7.7,0.4-14.3-5.6-14.7-13.3c0,0,0,0,0-0.1c-0.1-2.2,0.3-4.4,1.2-6.4c1.7-3.8,5-6.6,9-7.8
		l-0.1,5.8l3.2-6.3l0,0c7.7-0.4,14.3,5.6,14.7,13.4S440.6-945.2,432.9-944.8L432.9-944.8z"/>
	<path class="st8" d="M466.9-967.6c-7.7,0.4-14.3-5.6-14.7-13.3c-0.4-7.7,5.6-14.3,13.3-14.7c2.6-0.1,5.2,0.5,7.5,1.8l-2.5,6.8
		l5.1-4.9c2.7,2.5,4.4,6,4.5,9.7c0.1,1.3-0.1,2.6-0.4,3.9C478.5-972.2,473.2-967.8,466.9-967.6z"/>
	<path class="st6" d="M462.9-1008.9c-3.2,0.4-6.4,1.4-9.6,1.6s-6.8-0.6-8.9-3.1c-1.1-1.4-1.7-3.1-2.6-4.6c-0.9-1.4-2.1-2.5-3.5-3.3
		c-3.3,7-0.4,15.3,6.6,18.7c7,3.3,15.3,0.4,18.7-6.6c0.4-0.9,0.8-1.8,1-2.8C464-1008.9,463.5-1008.9,462.9-1008.9z"/>
	<path class="st6" d="M466.9-967.6c-7.7,0.4-14.3-5.6-14.7-13.3c-0.1-2.3,0.3-4.6,1.3-6.7c1.1,0.8,2.1,1.7,2.8,2.8
		c1,1.5,1.6,3.2,2.8,4.6c2.2,2.6,5.9,3.4,9.3,3.2s6.7-1.1,10-1.4c0.5,0,0.9-0.1,1.4-0.1C478.5-972.3,473.2-967.8,466.9-967.6z"/>
	<path class="st6" d="M432.9-944.8c-7.7,0.4-14.3-5.6-14.7-13.3c0,0,0,0,0-0.1c-0.1-2.2,0.3-4.4,1.2-6.4c1.2,0.8,2.2,1.7,3,2.8
		c1.1,1.5,1.8,3.3,3,4.7c2.4,2.6,6.3,3.6,9.9,3.5s6.8-0.9,10.3-1.2C443.9-949.1,438.8-945.1,432.9-944.8z"/>
	<path class="st6" d="M439.8-917.6c-3.2,7.1-11.5,10.2-18.5,7c-7.1-3.2-10.2-11.5-7-18.5c1.2,0.8,2.2,1.7,3.1,2.8
		c1.3,1.6,2.2,3.5,3.8,5c2.9,2.8,7.5,4,11.6,4.1C435.1-917.2,437.4-917.3,439.8-917.6z"/>
	<path class="st9" d="M404.8-896.9c0,0,11.1-0.3,14.4-2.7s17-5.2,17.9-1.4s16.7,19,4.1,19.1s-29.1-2-32.4-4S404.8-896.9,404.8-896.9
		z"/>
	<path class="st10" d="M441.4-883.3c-12.5,0.1-29.1-2-32.4-4c-2.5-1.5-3.5-7.1-3.9-9.7h-0.4c0,0,0.7,8.9,4,11s19.9,4.1,32.4,4
		c3.6,0,4.9-1.3,4.8-3.2C445.5-884,444.1-883.3,441.4-883.3z"/>
	<path class="st7" d="M-203.2-921.4c-7.3-13.4,1-29.9,10.4-41.9s21-24.4,20.8-39.7c-0.4-21.9-23.6-34.9-42.2-46.5
		c-13.8-8.6-26.5-18.9-37.9-30.5c-4.6-4.7-9-9.7-11.7-15.6c-3.8-8.6-3.7-18.3-3.5-27.7c0.8-31.3,2.3-62.6,4.6-93.8"/>
	<path class="st8" d="M-298-1218.9c0.6-11.6,7-22.2,17.1-28l7.7,15.1l-0.2-18.3c18.1-5.3,37.2,5,42.5,23.2
		c5.3,18.1-5,37.2-23.2,42.5c-18.1,5.3-37.2-5-42.5-23.2C-297.7-1211.2-298.2-1215-298-1218.9L-298-1218.9z"/>
	<path class="st8" d="M-237-987.3c8.6,16.8,29.2,23.4,46,14.8c10.9-5.6,18-16.6,18.5-28.8c0.2-4.7-0.5-9.5-2.2-13.9
		c-6.8-17.6-26.6-26.4-44.2-19.6c-9.1,3.5-16.3,10.8-19.8,20l21.4,17.4l-23.5-5.5C-240.8-997.5-239.5-992.1-237-987.3z"/>
	<path class="st8" d="M-220.1-1053.7c18.9,0.9,34.9-13.7,35.7-32.6c0.7-15.9-9.6-30.2-24.9-34.5l0.2,14.1l-7.7-15.3h-0.1
		c-18.9-0.9-34.9,13.7-35.8,32.6S-238.9-1054.6-220.1-1053.7L-220.1-1053.7L-220.1-1053.7z"/>
	<path class="st8" d="M-303.2-1109c18.9,0.9,34.9-13.6,35.8-32.5s-13.6-34.9-32.5-35.8c-6.4-0.3-12.8,1.2-18.5,4.4l6,16.6l-12.4-12
		c-6.7,6.1-10.7,14.6-11.1,23.6c-0.2,3.2,0.1,6.3,0.9,9.4C-331.4-1120.5-318.5-1109.7-303.2-1109z"/>
	<path class="st6" d="M-293.4-1209.8c7.9,0.9,15.6,3.3,23.5,3.8c7.9,0.5,16.6-1.4,21.6-7.6c2.7-3.3,4-7.5,6.3-11.1
		c2.2-3.4,5.1-6.2,8.6-8.1c8.5,16.9,1.7,37.5-15.2,45.9c-16.9,8.5-37.5,1.7-45.9-15.2c-1.3-2.5-2.2-5.2-2.8-8
		C-296-1210-294.7-1209.9-293.4-1209.8z"/>
	<path class="st6" d="M-303.2-1109c18.9,0.9,34.9-13.7,35.8-32.6c0.3-5.6-0.9-11.1-3.2-16.2c-2.7,1.8-5.1,4.2-6.9,6.9
		c-2.4,3.7-3.9,7.9-6.8,11.3c-5.3,6.3-14.4,8.3-22.7,7.9s-16.2-2.7-24.5-3.5c-1.1-0.1-2.3-0.2-3.4-0.2
		C-331.4-1120.5-318.4-1109.7-303.2-1109z"/>
	<path class="st6" d="M-220.1-1053.7c18.9,0.9,34.9-13.7,35.8-32.6c0.3-5.4-0.8-10.7-3-15.6c-2.8,1.9-5.3,4.2-7.2,7
		c-2.7,3.8-4.3,8.1-7.4,11.5c-5.8,6.4-15.5,8.7-24.2,8.5c-8.5-0.2-16.6-2.3-25-2.9C-247-1064-234.5-1054.4-220.1-1053.7z"/>
	<path class="st6" d="M-237-987.3c8.6,16.8,29.2,23.4,46,14.8c10.9-5.6,18-16.6,18.5-28.8c0.2-4.7-0.5-9.5-2.2-13.9
		c-2.8,1.8-5.3,4.1-7.5,6.7c-3.2,4-5.4,8.5-9.2,12.2c-7,6.9-18.3,9.7-28.3,10C-225.4-986.3-231.2-986.6-237-987.3z"/>
	<polygon class="st1" points="33.6,-901.4 -98.4,-874.4 -101.4,-874.7 -217.4,-886.4 -217.4,-1033.4 -75.4,-1057.4 27.6,-1045.4 
		27.7,-1044.8 27.7,-1044.5 	"/>
	<polygon class="st6" points="33.6,-901.4 -98.4,-874.4 -101.4,-874.7 -101.4,-1025.4 27.7,-1044.8 	"/>
	<polygon class="st11" points="27.7,-1044.5 27.6,-1044.4 -101.4,-1025.4 -217.4,-1033.4 -75.4,-1057.4 27.6,-1045.4 27.7,-1044.8 	
		"/>
	<polygon class="st3" points="178.6,-895.4 46.6,-868.4 43.6,-868.7 -72.4,-880.4 -72.4,-1027.4 69.6,-1051.4 172.6,-1039.4 
		172.7,-1038.8 172.7,-1038.5 	"/>
	<polygon class="st6" points="178.6,-895.4 46.6,-868.4 43.6,-868.7 43.6,-1019.4 172.7,-1038.8 	"/>
	<polygon class="st11" points="172.7,-1038.5 172.6,-1038.4 43.6,-1019.4 -72.4,-1027.4 69.6,-1051.4 172.6,-1039.4 172.7,-1038.8 	
		"/>
	<polygon class="st3" points="87.6,-1039.4 -44.4,-1012.4 -47.4,-1012.7 -163.4,-1024.4 -163.4,-1171.4 -21.4,-1195.4 81.6,-1183.4 
		81.7,-1182.8 81.7,-1182.5 	"/>
	<polygon class="st6" points="87.6,-1039.4 -44.4,-1012.4 -47.4,-1012.7 -47.4,-1163.4 81.7,-1182.8 	"/>
	<polygon class="st11" points="81.7,-1182.5 81.6,-1182.4 -47.4,-1163.4 -163.4,-1171.4 -21.4,-1195.4 81.6,-1183.4 81.7,-1182.8 	
		"/>
	<polygon class="st3" points="162.6,-1033.3 93.8,-1019.2 92.2,-1019.3 31.6,-1025.4 31.6,-1102.2 105.8,-1114.7 159.5,-1108.4 
		159.5,-1108.1 159.5,-1107.9 	"/>
	<polygon class="st6" points="162.6,-1033.3 93.8,-1019.2 92.2,-1019.3 92.2,-1098 159.5,-1108.1 	"/>
	<polygon class="st11" points="159.5,-1107.9 159.5,-1107.9 92.2,-1098 31.6,-1102.2 105.8,-1114.7 159.5,-1108.4 159.5,-1108.1 	
		"/>
	<polygon class="st3" points="-22.4,-1182.3 -91.2,-1168.2 -92.8,-1168.3 -153.4,-1174.4 -153.4,-1251.2 -79.2,-1263.7 
		-25.5,-1257.4 -25.5,-1257.1 -25.5,-1256.9 	"/>
	<polygon class="st6" points="-22.4,-1182.3 -91.2,-1168.2 -92.8,-1168.3 -92.8,-1247 -25.5,-1257.1 	"/>
	<polygon class="st11" points="-25.5,-1256.9 -25.5,-1256.9 -92.8,-1247 -153.4,-1251.2 -79.2,-1263.7 -25.5,-1257.4 -25.5,-1257.1 
			"/>
	<polygon class="st1" points="98.6,-1185.3 29.8,-1171.2 28.2,-1171.3 -32.4,-1177.4 -32.4,-1254.2 41.8,-1266.7 95.5,-1260.4 
		95.5,-1260.1 95.5,-1259.9 	"/>
	<polygon class="st6" points="98.6,-1185.3 29.8,-1171.2 28.2,-1171.3 28.2,-1250 95.5,-1260.1 	"/>
	<polygon class="st11" points="95.5,-1259.9 95.5,-1259.9 28.2,-1250 -32.4,-1254.2 41.8,-1266.7 95.5,-1260.4 95.5,-1260.1 	"/>
	<polygon class="st3" points="134.6,-1262.3 65.8,-1248.2 64.2,-1248.3 3.6,-1254.4 3.6,-1331.2 77.8,-1343.7 131.5,-1337.4 
		131.5,-1337.1 131.5,-1336.9 	"/>
	<polygon class="st6" points="134.6,-1262.3 65.8,-1248.2 64.2,-1248.3 64.2,-1327 131.5,-1337.1 	"/>
	<polygon class="st11" points="131.5,-1336.9 131.5,-1336.9 64.2,-1327 3.6,-1331.2 77.8,-1343.7 131.5,-1337.4 131.5,-1337.1 	"/>
	<path class="st12" d="M181.6-1419.1c-0.7,6.5-5.7,11.7-7.5,18c-2.8,9.4,2,19.6,8.6,27c10.7,11.9,25.7,19,41.6,19.7
		c2.3,0.2,4.7-0.1,6.9-0.8c2-0.8,3.8-2,5.2-3.6c4.9-4.9,7.6-11.8,8.6-18.7s0.7-13.9,0.2-20.9c0-1.4-0.3-2.9-0.8-4.2
		c-0.7-1.3-1.6-2.4-2.7-3.3c-3.5-3.3-7.5-6.1-11.7-8.5c-1.8-1-3.7-2-4.9-3.7c-0.8-1.4-1.3-2.9-1.5-4.5l-1.3-6.6
		c-0.2-1.9-0.9-3.7-1.9-5.3c-2.3-3.1-6.6-3.5-10.4-3.6l-14-0.5c-4.3-0.2-10.1-1.4-14.3-0.6c-4,0.8-2.7,4.5-1.9,7.8
		C180.8-1427.4,181.4-1423.2,181.6-1419.1z"/>
	<path class="st6" d="M181.6-1419.1c-0.7,6.5-5.7,11.7-7.5,18c-2.8,9.4,2,19.6,8.6,27c10.7,11.9,25.7,19,41.6,19.7
		c2.3,0.2,4.7-0.1,6.9-0.8c2-0.8,3.8-2,5.2-3.6c4.9-4.9,7.6-11.8,8.6-18.7s0.7-13.9,0.2-20.9c0-1.4-0.3-2.9-0.8-4.2
		c-0.7-1.3-1.6-2.4-2.7-3.3c-3.5-3.3-7.5-6.1-11.7-8.5c-1.8-1-3.7-2-4.9-3.7c-0.8-1.4-1.3-2.9-1.5-4.5l-1.3-6.6
		c-0.2-1.9-0.9-3.7-1.9-5.3c-2.3-3.1-6.6-3.5-10.4-3.6l-14-0.5c-4.3-0.2-10.1-1.4-14.3-0.6c-4,0.8-2.7,4.5-1.9,7.8
		C180.8-1427.4,181.4-1423.2,181.6-1419.1z"/>
	<path class="st13" d="M270.5-1126.3l-5.9,65.1c-1.5,17.1-3.1,34.2-6.2,51.1c-1,5.8-2.3,11.6-3.7,17.3c-4.1,15.9-10,31.5-11.8,47.8
		c-0.1,0.5-0.1,1-0.2,1.4c-0.4,3.6-0.7,7.2-2,10.6c-1,2.5-2.4,4.8-3.4,7.2c-2,4.9-2.3,10.4-2.6,15.7c-7.2-4.1-15.1-6.8-23.3-8
		c-4-0.6-8.3-1-11-4c-3-3.3-2.7-8.2-2.2-12.6c1.6-13.6,3.1-27.2,4.7-40.8c0.5-5.8,1.5-11.6,3-17.3c0.5-1.9,1.2-3.8,1.8-5.6
		c0.9-2.6,1.8-5.1,2.5-7.8c1-4.2,1.6-8.5,2-12.8c1.6-13.7,3.5-27.3,5.2-41l0.1-0.7c2.5-20.7,4.5-41.5,3.9-62.4
		c-0.1-3.1-0.2-6.2-0.4-9.3c-0.3-4.5-0.7-6.9,3-9.7c4.1-3.1,9.5-5.3,14.2-7.3c2.5-1.1,30.4-11,31-8.8c1.3,4.6,2,9.4,2,14.2
		C271.4-1138.1,271.1-1132.2,270.5-1126.3z"/>
	<path class="st6" d="M258.4-1010.1c-1,5.8-2.3,11.6-3.7,17.3c-4.1,15.9-10,31.5-11.8,47.8c-0.1,0.5-0.1,1-0.2,1.4
		c-12.4-17.7-22.9-36.8-35-54.8c0.9-2.6,1.8-5.1,2.5-7.8c1-4.2,1.7-8.6,2.1-12.9c1.6-13.7,3.5-27.3,5.2-41l0.1-0.7
		c0.7,2.9,1.7,5.7,3,8.4c8.1,16.5,27.5,24.9,36.9,40.7C257.8-1011.1,258.1-1010.6,258.4-1010.1z"/>
	<path class="st13" d="M157.6-1155.6c0.4,13.3,2.5,26.4,4.7,39.5l4.4,27c2.4,14.8,4.9,29.9,11.9,43.1c5.2,9.9,12.8,18.4,19.6,27.3
		c16.8,21.9,29.4,46.6,45.3,69.1c4.6,6.5,11.2,13.6,19.1,12.2c5.2-0.9,8.9-5.2,13-8.5c4.8-3.9,10.6-6.8,14.4-11.7s4.5-13.1-0.6-16.6
		c-1.8-1.2-3.9-1.6-5.9-2.4c-7.9-3-13.1-10.8-16.3-18.6s-5.2-16.2-9.6-23.5c-9.5-15.8-28.8-24.2-37-40.7c-4.6-9.3-5-20-5.3-30.3
		l-0.9-26.3c-0.1-2.9-0.2-5.9,1-8.5c3.1-7,12.5-7.7,20.1-8.5c8.6-1,17-3.6,24.7-7.8c4.4-2.4,8.7-5.4,11-9.8c2.1-4,2.4-8.7,2.7-13.2
		l2.6-47.7c0.2-4.1,0.4-8.4-1-12.2c-3.6-9.7-15.8-12.8-26.1-12.4c-19.2,0.9-36.9,9.1-55,14.7c-4.5,1.4-9,2.6-13.6,3.5
		c-4,0.8-9,0.5-12.8,1.8c-6.9,2.3-6.7,17.4-7.7,23.6C158.2-1180.2,157.3-1167.9,157.6-1155.6z"/>
	<path class="st14" d="M259.9-935.2c1.7,1.7,2.2,4.2,2.7,6.6c2.4,13.1,3.7,26.4,3.8,39.7c-0.1,1.2,0.1,2.5,0.7,3.6
		c0.5,0.7,1.1,1.2,1.9,1.5c4.9,2.3,10.6-0.9,14.6-4.5c7.5-6.6,13.9-15.5,14.4-25.5c0.1-2.6-0.2-5.2,0.3-7.7
		c0.7-3.8,2.9-7.1,4.8-10.4c3.3-5.6,6-11.6,8-17.8c0.7-2.3,1.2-5.3-0.6-6.9c-0.6-0.5-1.4-0.9-2.2-1.1l-22.1-8.2
		c-1.9-0.7-6.7,11.5-7.4,12.9c-1.8,3.3-3.7,5.1-7.4,5.9s-8.3-0.3-11.8,1.5C253.6-942.6,256.5-938.6,259.9-935.2z"/>
	<path class="st14" d="M225.9-927.7c-0.4-0.8-1-1.5-1.7-2.1c-1-0.7-2.2-1-3.4-1.2c-4.2-0.7-9.2-1.2-12.1,1.9
		c-2.7,2.9-2.2,7.7-4.5,11c-0.7,1-1.7,1.9-2.3,3c-0.8,1.7-1.1,3.5-1,5.4c-0.1,5.1-0.2,10.2,0.1,15.3c0.3,4.3,1,8.7,3.7,12.1
		c4.3,5.4,12,6.1,18.8,6.5l5.5,0.3c1.5,0.2,3.1,0,4.5-0.4c1.8-0.8,3.3-2.4,3.9-4.3c2.9-7.2-1.7-14.9-4.5-22.1
		C229.7-910.7,230.3-919.9,225.9-927.7z"/>
	<path class="st3" d="M180-1455.8c-0.1-0.7,0-1.5,0.3-2.1c0.8-1.4,2.9-1,4.5-0.6c6.4,1.6,13.2,0.2,19.8,0.5s14.1,3.7,15.4,10.2
		c4.8-3.4,9-7.7,12.2-12.6c1.8-2.8,3.4-5.9,3.2-9.2c-0.4-4.8-4.3-8.3-8-11.3l-11-9c-1.4-1.3-3.1-2.4-4.9-3.1c-2.5-0.9-5.3-0.4-8-0.4
		c-8,0-16.6-3.7-23.7,0c-3,1.5-5.2,4.2-7.4,6.7l-9.8,11.6c-0.7,0.7-1.3,1.7-1.6,2.7c-0.3,1.4,0.5,2.8,0.7,4.2
		c0.5,2.6-0.7,5.4,0.2,7.9c1.4,4.1,6.5,4.7,9.5,7.1c1.1,0.9,2.9,3.9,4.3,3.8C178.2-1449.4,179.9-1453.8,180-1455.8z"/>
	<circle class="st12" cx="196.6" cy="-1452.9" r="31.5"/>
	<path class="st3" d="M204-1384c-2.2-6.3-8.2-10.4-14.8-10.2c-0.9,0.2-1.9,0.1-2.7-0.3c-0.5-0.4-0.9-0.8-1.1-1.4
		c-1.9-3.4-3.4-7.1-4.6-10.9c-0.5-1.7-1.2-3.6-2.9-4.1c-1.4-0.3-2.8,0.5-3.7,1.6c-0.8,1.1-1.7,2.2-2.6,3.3c-4,3.5-11,0.3-15.2,3.6
		c-0.7,0.5-1.3,1.2-2,1.7c-0.7,0.4-1.5,0.8-2.3,1c-8.1,2.6-16.1,5.8-23.9,9.3c2.8,16.8,5.7,34,12.2,49.8c3.1,7.5,6.7,14.8,9.2,22.6
		c5.5,17.1,5.8,35.5,5.8,53.5c0,12.3,0,24.9-4,36.6c-0.9,2.6-2,5.3-2.2,8s0.6,5.8,2.8,7.5c1.3,0.9,2.8,1.4,4.3,1.5
		c6.9,1,13.9-0.8,20.7-2.4c18.2-4.2,36.8-6.6,55.4-9l31.1-4c2.2-0.2,4.4-0.7,6.4-1.7c5.7-3.1,6.2-11.7,2.7-17.1
		c-1.7-2.6-4.1-4.8-5.5-7.5s-1.5-6.6,0.9-8.6c5-3.9,3.5-11.1,3.7-17.4c0.7-17.7,0.6-35.3-0.3-53c-0.3-3.7-0.3-7.3-0.2-11
		c0.3-6.2,1.9-12.3,3.4-18.4l9.5-37.2c-2.5-3.9-7.2-6.4-11.7-7.5s-9.1-1.4-13.5-2.8c-9-2.8-17.1-9.9-26.5-9.2
		c-0.7,0-1.4,0.2-2.1,0.5c-2.1,1.2-1.8,4.3-1.9,6.7c-0.3,5.4-4.3,9.9-8.7,13.1c-4.4,3.2-9.4,5.5-13.4,9.1
		C205-1387.4,204.1-1385.8,204-1384z"/>
	<path class="st12" d="M79.2-1348.7c-2.1,1.4-4.3,2.5-6.6,3.4c-2.2,0.9-4.5,1.6-6.3,3.1c-0.9,0.8-1.6,1.7-2.2,2.7
		c-3.3,5.8-1.2,13.2,4.6,16.5c2,1.1,4.3,1.7,6.6,1.5c2.9-0.2,5.6-1.3,8.3-2.5l22.2-9.7c3.8-1.6,7.8-3.5,9.6-7.2
		c0.2-0.3,0.3-0.8,0.2-1.2c-0.2-0.4-0.5-0.8-0.9-1c-5-3.3-9.4-7.4-12.9-12.2c-0.9-1.2-2-4.2-3.3-4.9
		C93.7-1362.7,83-1351.1,79.2-1348.7z"/>
	<path class="st12" d="M316.7-1356.6l8.2,9.4c1.8,2,3.5,4,5.1,6.2c3.9,5.4,7.1,11.4,9.4,17.7c1.8,4.7,3.3,9.6,2.6,14.6
		c-0.4,2.5-1.1,5-2,7.4c-1.5,4.6-3.4,9.1-5.6,13.4c-1.8,3.3-3.9,6.4-6.2,9.4c-6.3,8.4-13.3,16.3-20.8,23.8c-2.8,2.8-4,7.3-5.2,11
		c-2.2,6.9-7.6,12.3-12.8,17.4c-1.7,1.8-3.5,3.3-5.5,4.7c-3,1.9-6.5,2.9-10,2.8c-1.5,0-3.1-0.3-4.5-0.9c-3.5-1.7-5.3-5.8-5.7-9.7
		c-0.3-3.5,0.3-7.1,1.7-10.4c4.7-10.4,16.8-14.9,25.3-22.5c5-4.4,8.8-10,12.6-15.6c2.6-3.5,4.7-7.2,6.4-11.2
		c1.9-5.1,1.2-11.1,2.8-16.3c0.7-2.2,2-4.2,2.7-6.3c0.7-2.2,1-4.7-0.4-6.6c-1-1.2-2.3-2.1-3.7-2.7c-5.5-2.8-11.5-6.3-12.6-12.3
		c-0.4-3.3,0.5-6.7,2.4-9.4c2-2.7,4.3-5.1,6.9-7.2C310.3-1352.1,314.3-1354.5,316.7-1356.6z"/>
	<path class="st12" d="M74-1335.6c-1.4-2.9-3.2-5.9-6.2-7.3c-2.9-1.2-6.1-1.2-9,0c-2.8,1.2-5.5,2.8-7.9,4.8l-7.1,5.2
		c-1.6,1.1-3,2.4-4.2,3.9c-1.1,1.8-1.9,3.9-2.2,6c-1,4.9-1.8,9.9-1.1,14.8c1.1,8,5.9,14.9,11.2,21c3.3,3.8,7.4,7.6,12.4,7.8
		c2.2,0.1,4.6-0.8,5.5-2.8c0.3-0.8,0.5-1.6,0.5-2.5c0.5-8.9-2.6-17.6-6.3-25.6c-1-2.2-2.1-4.5-2-6.9c0-0.4,0.1-0.8,0.3-1.2
		c0.3-0.3,0.7-0.5,1.2-0.6c5.1-1,13.8,2.9,17.4-2.7C78.8-1325.5,75.6-1332.3,74-1335.6z"/>
	<path class="st3" d="M178.3-1465.7c-0.1-0.7,0-1.5,0.3-2.1c0.8-1.4,2.9-1,4.5-0.6c6.4,1.6,13.2,0.2,19.8,0.5s14.1,3.7,15.4,10.2
		c4.8-3.4,8.9-7.7,12.2-12.6c1.8-2.8,3.4-5.9,3.2-9.2c-0.4-4.8-4.4-8.3-8-11.3l-11-9c-1.4-1.3-3.1-2.4-4.9-3.1
		c-2.5-0.9-5.3-0.4-8-0.4c-8,0-16.6-3.7-23.7,0c-3,1.5-5.2,4.2-7.4,6.7l-9.8,11.6c-0.7,0.7-1.3,1.7-1.6,2.7
		c-0.3,1.4,0.5,2.8,0.7,4.2c0.5,2.6-0.7,5.4,0.2,7.9c1.4,4.2,6.5,4.7,9.5,7.1c1.1,0.9,2.9,3.9,4.3,3.8
		C176.5-1459.3,178.2-1463.7,178.3-1465.7z"/>
	<path class="st3" d="M111.4-1379.3c-1.3,0.8-2.4,1.9-3.3,3.1c-1.2,1.8-1.4,4-2.4,5.8c-2.1,3.9-7.1,5.4-10.2,8.6
		c-0.5,0.4-0.9,1-1,1.7c0,0.9,0.3,1.7,0.8,2.4l14.9,23.5c5,0.4,9.7-2.7,14.7-2.3c1.8,0.2,3.8,0.8,5.5,0.2c1.3-0.6,2.5-1.3,3.5-2.2
		c3-1.9,6.9-2.1,9.4-4.6s2.7-6.1,2.7-9.5c0-2.9-0.3-5.8-0.9-8.7c-2.2-9-9.1-15.9-13.4-23.9c-2.1-3.9-3.2-6.2-7.7-3.5
		C119.8-1386,115.6-1382.4,111.4-1379.3z"/>
	<path class="st3" d="M292.8-1391.2c2.8,1.8,5.3,4,7.5,6.6c2.3,2.9,3.6,6.5,5.8,9.5s5,5.2,7.4,7.8c3.7,4.1,6.1,9,8.5,13.9
		c-5.9,7.7-12.4,15-19.3,21.8c-0.8,0.9-1.8,1.6-2.9,1.9c-1.6,0.2-3.1-0.5-4.1-1.7c-1.1-1.1-1.8-2.5-2.9-3.7
		c-2.4-2.5-5.7-4.1-9.1-4.4c-3.4-0.3-6.9-0.4-10.3-0.2c-0.8,0.1-1.5,0-2.2-0.4c-0.5-0.4-0.9-0.8-1.2-1.4c-4-6.9-2.8-15.5-1.3-23.4
		l3.3-18c0.5-3.4,1.4-6.8,2.7-10c1.2-2.6,4-7.1,7.4-6.3C285.4-1398.3,289.9-1393.3,292.8-1391.2z"/>
	<polygon class="st1" points="7.6,-1259.3 -61.2,-1245.2 -62.8,-1245.3 -123.4,-1251.4 -123.4,-1328.2 -49.2,-1340.7 4.5,-1334.4 
		4.5,-1334.1 4.5,-1333.9 	"/>
	<polygon class="st6" points="7.6,-1259.3 -61.2,-1245.2 -62.8,-1245.3 -62.8,-1324 4.5,-1334.1 	"/>
	<polygon class="st11" points="4.5,-1333.9 4.5,-1333.9 -62.8,-1324 -123.4,-1328.2 -49.2,-1340.7 4.5,-1334.4 4.5,-1334.1 	"/>
	<polygon class="st3" points="43.6,-1335.3 -25.2,-1321.2 -26.8,-1321.3 -87.4,-1327.4 -87.4,-1404.2 -13.2,-1416.7 40.5,-1410.4 
		40.5,-1410.1 40.5,-1409.9 	"/>
	<polygon class="st6" points="43.6,-1335.3 -25.2,-1321.2 -26.8,-1321.3 -26.8,-1400 40.5,-1410.1 	"/>
	<polygon class="st11" points="40.5,-1409.9 40.5,-1409.9 -26.8,-1400 -87.4,-1404.2 -13.2,-1416.7 40.5,-1410.4 40.5,-1410.1 	"/>
</g>
</svg>
